<svg width="38" height="41" viewBox="0 0 38 41" fill="none" xmlns="http://www.w3.org/2000/svg">
<g clip-path="url(#clip0_2324_4807)">
<path fill-rule="evenodd" clip-rule="evenodd" d="M11.1346 15.237C10.985 14.8927 10.8507 14.5484 10.7317 14.1997C10.5532 13.6768 10.4421 13.1304 10.2908 12.5998C10.2265 12.3747 10.05 11.7904 10.0388 11.7024C9.94427 10.9342 10.4842 10.6604 10.6454 10.5932C10.7228 10.5584 11.5246 10.2282 11.9485 11.1423C12.4676 12.2598 12.8401 13.4273 13.0588 14.6121C13.4913 15.5499 14.0509 16.4474 14.6858 17.2239C17.2118 20.312 20.3921 19.7845 23.7346 18.8075C24.2479 18.6541 24.7841 18.959 24.9483 19.4903C25.1136 20.0257 24.8497 20.6039 24.3491 20.7971C22.5246 21.5156 19.6041 24.0327 18.8742 26.0018C18.7216 26.4139 18.7934 27.284 18.8159 28.1506C18.8458 29.3539 18.8237 30.5588 18.5995 31.1258C18.5664 31.2133 18.1289 32.1358 17.9696 32.298C17.5858 32.6841 17.1875 32.6357 16.9479 32.5556C16.7083 32.4754 16.4077 32.2692 16.2007 31.8455C15.9843 31.4027 15.8204 30.4152 15.7527 30.2128C15.5071 29.4786 14.99 28.0479 14.3773 26.8656C14.0471 26.229 13.72 25.6481 13.364 25.414C12.0462 24.5478 10.4527 25.1794 9.12281 25.7584C8.96968 25.8233 8.81758 25.8923 8.66483 25.9571C8.14806 26.2895 7.58525 26.5871 6.97516 26.8416C6.05417 27.2272 5.66356 26.3515 5.6396 26.2931C5.58783 26.1643 5.34653 25.4941 5.99311 25.0165C6.06406 24.9661 6.60695 24.6697 6.81576 24.5543C7.10684 24.3941 7.40551 24.2491 7.70637 24.1079C10.6823 22.131 11.686 18.6516 11.1346 15.237ZM13.1869 18.6063C15.0915 20.9271 17.2795 21.6914 19.6326 21.6534L19.6322 21.6535C18.4487 22.7993 17.4381 24.1005 17.017 25.2398C16.857 25.6714 16.8106 26.4619 16.8097 27.3351C16.5039 26.6092 16.146 25.8458 15.7691 25.2137C15.3398 24.4922 14.8651 23.9268 14.4217 23.6349C13.5661 23.0726 12.6256 22.8905 11.6759 22.9367C12.4948 21.6331 12.9912 20.1555 13.1869 18.6063Z" fill="#FFB9AA"/>
</g>
<defs>
<clipPath id="clip0_2324_4807">
<rect width="30.5408" height="31.9142" fill="white" transform="matrix(0.962484 -0.271337 0.246799 0.969067 0.138672 9.20117)"/>
</clipPath>
</defs>
</svg>
