<svg width="496" height="293" viewBox="0 0 496 293" fill="none" xmlns="http://www.w3.org/2000/svg">
<path d="M242.678 0C242.678 1.39944 243.222 2.74157 244.19 3.73113C245.159 4.72068 246.472 5.27661 247.841 5.27661C249.211 5.27661 250.524 4.72068 251.492 3.73113C252.461 2.74157 253.005 1.39944 253.005 0H242.678ZM123.921 0.29549C114.216 0.318606 104.617 2.35799 95.708 6.28972C95.0651 6.53738 94.477 6.91368 93.9782 7.39658C93.4794 7.87948 93.0799 8.45926 92.8032 9.10196C92.5264 9.74465 92.378 10.4373 92.3666 11.1394C92.3551 11.8415 92.4809 12.5388 92.7366 13.1905C92.9922 13.8423 93.3726 14.4353 93.8554 14.9349C94.3382 15.4345 94.9137 15.8306 95.5482 16.1C96.1827 16.3694 96.8635 16.5067 97.5506 16.5038C98.2377 16.5009 98.9173 16.3579 99.5496 16.0831C107.24 12.6648 115.535 10.8975 123.921 10.8909C132.306 10.8909 140.609 12.6639 148.292 16.0831C149.292 16.5335 150.407 16.6478 151.475 16.4095C152.543 16.1712 153.509 15.5927 154.235 14.7572C154.961 13.9216 155.408 12.8723 155.513 11.7603C155.618 10.6483 155.374 9.53093 154.818 8.56921C154.212 7.51156 153.262 6.70485 152.133 6.28972C143.224 2.35799 133.625 0.318606 123.921 0.29549ZM232.393 1.68852C231.549 1.75137 230.733 2.02519 230.017 2.48588C229.301 2.94657 228.707 3.58002 228.286 4.33049C227.866 5.08097 227.633 5.92548 227.607 6.78973C227.581 7.65399 227.763 8.5115 228.138 9.28683C228.703 10.544 229.381 11.7452 230.162 12.8749C230.543 13.4588 231.035 13.9589 231.608 14.3462C232.181 14.7334 232.824 14.9999 233.499 15.1301C234.174 15.2602 234.867 15.2515 235.539 15.1042C236.211 14.957 236.847 14.6743 237.41 14.2727C237.974 13.8711 238.453 13.3586 238.82 12.7653C239.187 12.172 239.435 11.5098 239.548 10.8175C239.662 10.1251 239.639 9.4166 239.482 8.73337C239.324 8.05013 239.034 7.40593 238.63 6.83849C238.188 6.19863 237.801 5.52067 237.473 4.81227C237.045 3.82836 236.333 3.00174 235.433 2.44337C234.532 1.885 233.485 1.62159 232.434 1.68852H232.393ZM181.792 2.32171C181.077 2.37639 180.381 2.5825 179.749 2.92694C179.116 3.27137 178.561 3.74658 178.118 4.32232C177.675 4.89807 177.354 5.56174 177.176 6.2711C176.998 6.98045 176.966 7.71997 177.083 8.44258C178.226 18.3043 181.318 27.8258 186.17 36.4297C191.02 45.0218 197.527 52.5182 205.295 58.4648C206.052 59.1089 206.973 59.5184 207.95 59.6451C208.926 59.7719 209.918 59.6105 210.808 59.1802C211.698 58.7498 212.449 58.0683 212.973 57.2161C213.496 56.3638 213.771 55.3764 213.763 54.3702C213.763 52.6395 212.937 51.0776 211.656 50.1489C204.922 45.0416 199.284 38.5763 195.092 31.1531C190.898 23.7214 188.241 15.4888 187.285 6.96512C187.129 5.61778 186.472 4.38361 185.449 3.51892C184.426 2.65424 183.116 2.22548 181.792 2.32171ZM216.159 5.44546C215.353 5.49769 214.569 5.74259 213.872 6.16048C213.176 6.57837 212.584 7.15758 212.146 7.85151C211.708 8.54545 211.436 9.33474 211.351 10.1559C211.266 10.9771 211.37 11.8072 211.656 12.5794C213.27 17.4233 215.796 21.8975 219.092 25.7499C219.767 26.5989 220.684 27.2125 221.715 27.5057C222.747 27.7988 223.842 27.7571 224.849 27.3861C225.856 27.0152 226.726 26.3335 227.337 25.4353C227.949 24.5371 228.272 23.4669 228.262 22.3728C228.262 21.0642 227.766 19.8401 226.981 18.9114C224.479 16.0374 222.569 12.6781 221.364 9.03356C221.002 7.9341 220.297 6.98684 219.356 6.33826C218.415 5.68968 217.292 5.3759 216.159 5.44546ZM199.099 5.74095C198.335 5.79408 197.592 6.0202 196.924 6.40295C196.256 6.78569 195.68 7.31547 195.237 7.9539C194.794 8.59234 194.496 9.32344 194.364 10.0943C194.232 10.8651 194.269 11.6563 194.473 12.4106C195.698 17.8789 197.717 23.1291 200.462 27.9871C203.206 32.8447 206.645 37.2556 210.665 41.0731C211.387 41.8045 212.304 42.3018 213.302 42.5028C214.299 42.7037 215.332 42.5993 216.272 42.2026C217.211 41.8059 218.015 41.1346 218.583 40.2728C219.151 39.4111 219.457 38.3973 219.463 37.3584C219.463 35.7965 218.844 34.4035 217.811 33.4326C214.488 30.3146 211.647 26.6994 209.385 22.7105C207.134 18.7097 205.49 14.3828 204.51 9.87781C204.246 8.64645 203.56 7.55234 202.575 6.79353C201.59 6.03471 200.372 5.66132 199.14 5.74095H199.099ZM332.52 13.5081C331.281 13.5081 330.083 13.9725 329.216 14.7323C321.432 20.6737 314.911 28.1706 310.049 36.7674C305.197 45.3713 302.105 54.8929 300.962 64.7546C300.776 66.1428 301.137 67.5498 301.966 68.666C302.794 69.7822 304.023 70.5162 305.382 70.7066C306.74 70.8969 308.117 70.5279 309.209 69.6809C310.302 68.8338 311.02 67.578 311.206 66.1898C312.154 57.6837 314.797 49.4663 318.972 42.044C323.175 34.6161 328.827 28.1503 335.577 23.0482C336.462 22.3893 337.118 21.4603 337.452 20.3952C337.786 19.3301 337.781 18.184 337.436 17.1225C337.091 16.0609 336.425 15.1387 335.534 14.4891C334.643 13.8394 333.574 13.4959 332.479 13.5081H332.52ZM123.921 17.1806C118.427 17.1806 112.974 18.0671 107.728 19.7134C107.077 19.9074 106.47 20.2306 105.942 20.6644C105.413 21.0982 104.973 21.6342 104.647 22.2418C104.321 22.8494 104.115 23.5166 104.041 24.2054C103.968 24.8943 104.027 25.5912 104.217 26.2564C104.407 26.9216 104.723 27.5421 105.148 28.0824C105.572 28.6228 106.097 29.0724 106.691 29.4056C107.286 29.7387 107.939 29.949 108.613 30.0243C109.287 30.0996 109.969 30.0385 110.62 29.8445C114.923 28.4569 119.408 27.7452 123.921 27.7339C128.464 27.7339 132.926 28.4937 137.221 29.8445C138.536 30.2363 139.949 30.0785 141.15 29.4056C142.351 28.7327 143.241 27.5999 143.624 26.2564C144.007 24.9129 143.853 23.4688 143.195 22.2418C142.536 21.0147 141.428 20.1053 140.113 19.7134C134.87 18.047 129.412 17.1932 123.921 17.1806ZM338.221 30.5199C336.775 30.5199 335.495 31.1109 334.586 32.0818C330.551 35.8972 327.099 40.308 324.342 45.1678C321.611 50.0283 319.606 55.2784 318.393 60.7443C318.173 61.4338 318.093 62.1625 318.16 62.8848C318.227 63.6071 318.439 64.3075 318.783 64.9422C319.127 65.5769 319.596 66.1324 320.159 66.5738C320.722 67.0152 321.369 67.3332 322.058 67.5078C322.747 67.6824 323.464 67.7099 324.164 67.5885C324.864 67.4672 325.532 67.1997 326.126 66.8026C326.72 66.4056 327.228 65.8876 327.617 65.281C328.007 64.6744 328.27 63.9922 328.39 63.2771C329.384 58.7701 331.041 54.4433 333.305 50.4444C335.564 46.4406 338.405 42.811 341.732 39.6801C342.498 38.96 343.033 38.02 343.267 36.9836C343.502 35.9471 343.424 34.8625 343.044 33.872C342.664 32.8815 342.001 32.0314 341.14 31.4333C340.279 30.8351 339.262 30.5167 338.221 30.5199ZM123.921 34.108C121.442 34.108 118.923 34.3613 116.485 34.8678C115.428 35.0352 114.447 35.5343 113.679 36.2962C112.911 37.0582 112.393 38.0452 112.198 39.1207C112.003 40.1963 112.14 41.3072 112.59 42.2998C113.04 43.2924 113.78 44.1176 114.709 44.6612C115.866 45.3366 117.146 45.5055 118.344 45.2522C122.024 44.4858 125.817 44.4858 129.497 45.2522C130.164 45.3769 130.849 45.3661 131.512 45.2204C132.175 45.0747 132.804 44.797 133.362 44.4031C133.92 44.0091 134.397 43.5067 134.765 42.9245C135.133 42.3423 135.385 41.6917 135.507 41.0098C135.629 40.328 135.619 39.6282 135.476 38.9505C135.334 38.2729 135.062 37.6305 134.676 37.0602C134.291 36.4899 133.799 36.0027 133.229 35.6265C132.66 35.2504 132.023 34.9926 131.356 34.8678C128.908 34.3677 126.417 34.1132 123.921 34.108ZM347.019 45.4633C345.367 45.4633 343.962 46.1809 343.012 47.4051C339.718 51.2581 337.192 55.7321 335.577 60.5755C335.301 61.2372 335.161 61.9496 335.165 62.6688C335.168 63.3881 335.315 64.099 335.598 64.7579C335.88 65.4168 336.291 66.0098 336.805 66.5005C337.32 66.9912 337.927 67.3692 338.59 67.6113C339.253 67.8534 339.957 67.9544 340.659 67.9083C341.361 67.8621 342.047 67.6697 342.674 67.3429C343.301 67.016 343.856 66.5617 344.305 66.0077C344.754 65.4537 345.087 64.8118 345.284 64.1214C346.474 60.4789 348.37 57.1192 350.861 54.2435C351.52 53.4844 351.952 52.5468 352.103 51.5433C352.254 50.5398 352.119 49.513 351.714 48.5861C351.308 47.6592 350.649 46.8715 349.817 46.3176C348.984 45.7637 348.013 45.4671 347.019 45.4633ZM123.921 50.9932C123.26 50.9932 122.558 51.0354 121.897 51.1198C121.214 51.1706 120.547 51.3597 119.937 51.6761C119.326 51.9926 118.783 52.43 118.339 52.963C117.895 53.496 117.56 54.1138 117.352 54.7806C117.144 55.4474 117.068 56.1498 117.128 56.8469C117.188 57.544 117.384 58.2219 117.703 58.8411C118.022 59.4603 118.458 60.0084 118.987 60.4536C119.515 60.8988 120.125 61.2322 120.78 61.4343C121.436 61.6364 122.124 61.7032 122.805 61.6308C123.561 61.5573 124.322 61.5573 125.077 61.6308C125.755 61.689 126.438 61.6102 127.086 61.3988C127.734 61.1874 128.336 60.8475 128.855 60.3987C129.375 59.9499 129.803 59.4009 130.115 58.783C130.427 58.165 130.617 57.4904 130.674 56.7974C130.731 56.1045 130.654 55.4069 130.447 54.7444C130.24 54.082 129.908 53.4676 129.469 52.9365C129.03 52.4053 128.492 51.9678 127.888 51.6489C127.283 51.3299 126.623 51.1358 125.945 51.0776C125.271 51.0212 124.596 50.993 123.921 50.9932ZM358.337 58.0005C356.561 58.0005 354.991 58.887 354.041 60.3222C353.272 61.4522 352.608 62.6535 352.059 63.9103C351.726 64.542 351.523 65.2364 351.462 65.951C351.401 66.6656 351.483 67.3854 351.704 68.0664C351.924 68.7474 352.278 69.3754 352.744 69.9119C353.21 70.4484 353.778 70.8822 354.413 71.1868C355.049 71.4914 355.738 71.6604 356.44 71.6835C357.142 71.7065 357.84 71.5832 358.494 71.3209C359.147 71.0587 359.741 70.6631 360.24 70.1582C360.738 69.6534 361.131 69.05 361.394 68.3849C361.71 67.6705 362.098 66.9914 362.55 66.3586C363.107 65.5689 363.438 64.6374 363.508 63.6671C363.579 62.6968 363.385 61.7255 362.949 60.8606C362.513 59.9957 361.852 59.2708 361.038 58.766C360.224 58.2613 359.289 57.9964 358.337 58.0005ZM371.762 67.8783C370.393 67.8783 369.079 68.4342 368.111 69.4238C367.143 70.4134 366.599 71.7555 366.599 73.1549C366.599 74.5544 367.143 75.8965 368.111 76.886C369.079 77.8756 370.393 78.4315 371.762 78.4315C373.131 78.4315 374.445 77.8756 375.413 76.886C376.381 75.8965 376.925 74.5544 376.925 73.1549C376.925 71.7555 376.381 70.4134 375.413 69.4238C374.445 68.4342 373.131 67.8783 371.762 67.8783ZM124.292 67.8783C123.614 67.8312 122.934 67.921 122.29 68.1427C121.646 68.3643 121.051 68.7134 120.539 69.1701C120.026 69.6267 119.607 70.182 119.305 70.8041C119.003 71.4263 118.824 72.1032 118.778 72.7961C118.732 73.489 118.82 74.1845 119.037 74.8427C119.254 75.5009 119.595 76.109 120.042 76.6323C120.489 77.1556 121.032 77.5839 121.641 77.8926C122.25 78.2013 122.912 78.3844 123.59 78.4315C124.96 78.5267 126.31 78.062 127.344 77.1398C128.378 76.2175 129.012 74.9132 129.105 73.5137C129.198 72.1143 128.743 70.7344 127.841 69.6775C126.938 68.6207 125.662 67.9735 124.292 67.8783ZM387.169 74.8012C386.11 74.7192 385.052 74.9757 384.142 75.5354C383.231 76.0951 382.514 76.9301 382.089 77.925C381.783 78.6364 381.41 79.3152 380.973 79.9512C380.569 80.5186 380.279 81.1628 380.122 81.8461C379.964 82.5293 379.941 83.2378 380.055 83.9302C380.168 84.6225 380.416 85.2847 380.783 85.878C381.15 86.4713 381.63 86.9838 382.193 87.3854C382.756 87.787 383.393 88.0697 384.064 88.2169C384.736 88.3642 385.43 88.3729 386.104 88.2428C386.78 88.1126 387.422 87.8461 387.995 87.4589C388.568 87.0716 389.06 86.5715 389.441 85.9876C390.224 84.8585 390.901 83.6573 391.465 82.3995C391.841 81.6211 392.023 80.7601 391.995 79.8927C391.967 79.0253 391.73 78.1784 391.305 77.4269C390.88 76.6755 390.28 76.0427 389.559 75.5847C388.838 75.1267 388.017 74.8576 387.169 74.8012ZM437.77 75.4766C436.444 75.3697 435.129 75.7946 434.103 76.6612C433.078 77.5279 432.423 78.7684 432.277 80.12C431.334 88.6406 428.691 96.873 424.511 104.308C420.307 111.735 414.655 118.201 407.905 123.304C407.371 123.731 406.924 124.261 406.591 124.864C406.257 125.468 406.042 126.132 405.96 126.82C405.878 127.508 405.928 128.206 406.11 128.874C406.291 129.541 406.6 130.166 407.017 130.712C407.435 131.258 407.954 131.715 408.544 132.056C409.135 132.397 409.785 132.616 410.458 132.7C411.131 132.785 411.814 132.733 412.468 132.547C413.121 132.362 413.732 132.047 414.267 131.62C422.051 125.678 428.572 118.181 433.433 109.585C438.287 100.981 441.378 91.4594 442.521 81.5975C442.637 80.8716 442.604 80.1287 442.424 79.4167C442.243 78.7046 441.918 78.039 441.471 77.4626C441.024 76.8862 440.464 76.4118 439.826 76.0698C439.189 75.7278 438.489 75.5257 437.77 75.4766ZM403.486 78.6004C402.338 78.504 401.192 78.8057 400.233 79.4567C399.273 80.1077 398.557 81.0701 398.198 82.1885C397.006 85.8295 395.109 89.1886 392.622 92.0663C391.962 92.8255 391.531 93.7631 391.38 94.7666C391.228 95.7701 391.363 96.7969 391.769 97.7238C392.175 98.6507 392.833 99.4383 393.666 99.9922C394.499 100.546 395.47 100.843 396.463 100.847C398.116 100.847 399.52 100.087 400.47 98.9048C403.765 95.0518 406.291 90.5777 407.905 85.7344C408.199 84.963 408.311 84.132 408.232 83.3083C408.153 82.4847 407.885 81.6916 407.451 80.993C407.017 80.2945 406.428 79.7102 405.732 79.2872C405.036 78.8642 404.252 78.6145 403.444 78.5582L403.486 78.6004ZM420.463 78.8959C419.23 78.8073 418.007 79.1773 417.02 79.9376C416.034 80.6979 415.349 81.7972 415.093 83.0327C414.113 87.5378 412.47 91.8646 410.219 95.8654C407.956 99.8543 405.115 103.469 401.792 106.588C401.262 107.056 400.831 107.63 400.525 108.274C400.219 108.919 400.045 109.62 400.012 110.335C399.98 111.051 400.091 111.765 400.338 112.436C400.584 113.106 400.962 113.718 401.448 114.234C401.933 114.751 402.517 115.161 403.162 115.439C403.808 115.718 404.502 115.859 405.203 115.854C405.904 115.85 406.596 115.7 407.239 115.413C407.881 115.126 408.459 114.708 408.938 114.186C412.956 110.382 416.395 105.985 419.141 101.142C421.875 96.2684 423.88 91.0038 425.089 85.5233C425.286 84.7717 425.318 83.985 425.182 83.2195C425.046 82.4539 424.747 81.7285 424.305 81.0951C423.862 80.4618 423.289 79.9362 422.625 79.556C421.96 79.1758 421.222 78.9503 420.463 78.8959ZM121.979 84.7212C120.61 84.71 119.292 85.2552 118.316 86.2369C117.34 87.2185 116.786 88.5562 116.775 89.9556C116.764 91.3551 117.297 92.7017 118.258 93.6991C119.218 94.6966 120.527 95.2633 121.897 95.2745C123.243 95.4057 124.598 95.4057 125.945 95.2745C126.623 95.2135 127.282 95.0166 127.886 94.6951C128.49 94.3736 129.025 93.9337 129.463 93.4006C129.9 92.8675 130.23 92.2517 130.435 91.5881C130.639 90.9246 130.713 90.2264 130.654 89.5335C130.594 88.8406 130.401 88.1664 130.087 87.5496C129.772 86.9327 129.342 86.3853 128.82 85.9384C128.298 85.4915 127.696 85.154 127.046 84.9452C126.397 84.7364 125.714 84.6603 125.036 84.7212C124.281 84.8003 123.519 84.8003 122.764 84.7212C122.489 84.6987 122.213 84.6987 121.938 84.7212H121.979ZM39.2828 86.7053C38.2027 86.714 37.1524 87.0688 36.2799 87.7196C35.4073 88.3704 34.7565 89.2845 34.419 90.3331C34.0816 91.3818 34.0744 92.5122 34.3986 93.5652C34.7227 94.6182 35.3619 95.5409 36.2261 96.2031C42.9609 101.31 48.5985 107.776 52.7902 115.199C56.9736 122.632 59.6169 130.866 60.5559 139.387C60.7476 140.775 61.4711 142.029 62.5673 142.872C63.6634 143.715 65.0424 144.079 66.4008 143.883C67.7593 143.687 68.9859 142.947 69.8109 141.827C70.6359 140.707 70.9917 139.298 70.8 137.909C69.6578 128.048 66.566 118.526 61.7125 109.922C56.8513 101.326 50.3304 93.8286 42.5461 87.8872C41.6146 87.1088 40.4447 86.6903 39.2415 86.7053H39.2828ZM117.394 101.058C116.102 101.05 114.854 101.537 113.896 102.424C112.939 103.311 112.342 104.532 112.222 105.847C112.103 107.162 112.47 108.474 113.252 109.526C114.034 110.577 115.173 111.291 116.444 111.526C121.353 112.518 126.405 112.518 131.315 111.526C131.985 111.404 132.624 111.149 133.198 110.774C133.771 110.4 134.266 109.913 134.656 109.343C135.045 108.772 135.321 108.129 135.467 107.45C135.613 106.771 135.627 106.069 135.507 105.384C135.388 104.7 135.138 104.046 134.771 103.46C134.405 102.874 133.929 102.368 133.37 101.97C132.812 101.572 132.183 101.291 131.518 101.141C130.854 100.992 130.167 100.978 129.497 101.1C125.817 101.866 122.024 101.866 118.344 101.1C118.031 101.042 117.713 101.014 117.394 101.015V101.058ZM33.5412 103.759C32.5038 103.765 31.492 104.089 30.6377 104.69C29.7834 105.292 29.1262 106.142 28.7517 107.131C28.3772 108.12 28.3028 109.201 28.5382 110.233C28.7736 111.266 29.3079 112.202 30.0714 112.919C33.376 116.043 36.2261 119.674 38.498 123.642C40.7484 127.643 42.3918 131.969 43.3722 136.474C43.5967 137.51 44.1216 138.453 44.8785 139.18C45.6354 139.906 46.5891 140.383 47.6151 140.547C48.6411 140.711 49.6916 140.555 50.6296 140.1C51.5675 139.644 52.3493 138.91 52.8728 137.994C53.575 136.728 53.6989 135.292 53.4098 133.941C52.1843 128.473 50.1654 123.223 47.4203 118.365C44.677 113.507 41.238 109.096 37.2175 105.279C36.733 104.791 36.1587 104.405 35.5278 104.144C34.8969 103.883 34.2217 103.752 33.5412 103.759ZM108.513 116.296C107.313 116.422 106.194 116.972 105.35 117.853C104.506 118.733 103.99 119.888 103.892 121.116C103.793 122.345 104.119 123.57 104.813 124.579C105.506 125.587 106.523 126.316 107.687 126.639C112.944 128.309 118.416 129.162 123.921 129.171C129.414 129.171 134.867 128.327 140.113 126.639C140.764 126.445 141.371 126.121 141.9 125.688C142.429 125.254 142.868 124.718 143.195 124.11C143.521 123.503 143.726 122.835 143.8 122.147C143.874 121.458 143.814 120.761 143.624 120.096C143.434 119.43 143.118 118.81 142.693 118.27C142.269 117.729 141.744 117.28 141.15 116.946C140.555 116.613 139.902 116.403 139.228 116.328C138.554 116.252 137.872 116.314 137.221 116.508C132.918 117.895 128.433 118.606 123.921 118.618C119.394 118.61 114.895 117.899 110.579 116.508C109.911 116.295 109.209 116.223 108.513 116.296ZM24.7841 118.618C23.7906 118.622 22.8192 118.919 21.9865 119.473C21.1539 120.026 20.4953 120.814 20.0897 121.741C19.6842 122.668 19.5489 123.695 19.7002 124.698C19.8515 125.702 20.2829 126.639 20.9426 127.398C23.4328 130.274 25.3295 133.634 26.519 137.276C26.8384 138.232 27.4193 139.073 28.1927 139.701C28.966 140.329 29.8995 140.717 30.8822 140.819C31.8649 140.922 32.8557 140.734 33.737 140.278C34.6183 139.822 35.3532 139.117 35.8544 138.247C36.6805 136.812 36.7631 135.166 36.2674 133.73C34.6402 128.884 32.1003 124.409 28.7909 120.56C28.3061 119.952 27.695 119.463 27.0019 119.127C26.3088 118.791 25.5512 118.617 24.7841 118.618ZM97.2777 129.847C96.0885 129.902 94.9545 130.375 94.0675 131.187C93.1806 131.998 92.5952 133.098 92.4106 134.299C92.2259 135.501 92.4533 136.731 93.0542 137.782C93.6551 138.832 94.5926 139.637 95.708 140.062C104.617 143.994 114.216 146.033 123.921 146.057C133.636 146.051 143.249 144.026 152.175 140.105C152.804 139.844 153.377 139.459 153.86 138.973C154.344 138.486 154.729 137.906 154.994 137.267C155.259 136.628 155.398 135.943 155.403 135.249C155.408 134.555 155.28 133.867 155.025 133.224C154.77 132.581 154.393 131.995 153.917 131.501C153.441 131.007 152.874 130.613 152.249 130.342C151.623 130.072 150.952 129.93 150.273 129.925C149.594 129.919 148.921 130.051 148.292 130.311C140.601 133.728 132.306 135.496 123.921 135.503C115.535 135.496 107.24 133.728 99.5496 130.311C98.8328 129.998 98.0564 129.854 97.2777 129.889V129.847ZM13.466 131.113C12.5036 131.105 11.5582 131.372 10.7365 131.885C9.91479 132.397 9.24946 133.133 8.81562 134.011C8.38177 134.889 8.19667 135.873 8.28121 136.853C8.36575 137.833 8.71656 138.769 9.29405 139.556C9.72772 140.179 10.1012 140.843 10.4093 141.54C10.6968 142.169 11.1028 142.734 11.604 143.203C12.1052 143.672 12.6919 144.035 13.3306 144.272C13.9692 144.51 14.6473 144.616 15.3261 144.585C16.005 144.554 16.6712 144.387 17.2869 144.094C17.9026 143.8 18.4556 143.385 18.9144 142.873C19.3732 142.361 19.7288 141.761 19.9609 141.108C20.1929 140.456 20.2969 139.763 20.2669 139.069C20.2369 138.375 20.0735 137.694 19.786 137.065C19.2088 135.806 18.5173 134.605 17.7207 133.477C17.25 132.765 16.6164 132.182 15.8749 131.777C15.1335 131.373 14.3066 131.159 13.466 131.155V131.113ZM495.683 141.075C494.313 141.075 493 141.631 492.032 142.621C491.063 143.61 490.519 144.953 490.519 146.352C490.519 147.751 491.063 149.094 492.032 150.083C493 151.073 494.313 151.629 495.683 151.629V141.075ZM0 141.075V151.629C1.36941 151.629 2.68273 151.073 3.65105 150.083C4.61936 149.094 5.16336 147.751 5.16336 146.352C5.16336 144.953 4.61936 143.61 3.65105 142.621C2.68273 141.631 1.36941 141.075 0 141.075H0ZM371.762 146.648C362.06 146.657 352.462 148.682 343.549 152.6C342.906 152.847 342.318 153.224 341.819 153.706C341.321 154.189 340.921 154.769 340.644 155.412C340.368 156.054 340.219 156.747 340.208 157.449C340.196 158.151 340.322 158.849 340.578 159.5C340.833 160.152 341.214 160.745 341.697 161.245C342.179 161.744 342.755 162.14 343.39 162.41C344.024 162.679 344.705 162.817 345.392 162.814C346.079 162.811 346.759 162.668 347.391 162.393C355.081 158.975 363.376 157.207 371.762 157.201C380.147 157.201 388.45 159.016 396.133 162.435C396.765 162.693 397.44 162.821 398.121 162.812C398.801 162.803 399.473 162.657 400.098 162.383C400.724 162.108 401.29 161.711 401.765 161.213C402.24 160.715 402.614 160.126 402.866 159.48C403.118 158.834 403.244 158.144 403.235 157.449C403.226 156.754 403.083 156.067 402.815 155.428C402.546 154.789 402.157 154.21 401.67 153.725C401.183 153.24 400.607 152.857 399.975 152.6C391.059 148.697 381.461 146.686 371.762 146.69V146.648ZM480.234 147.998C479.39 148.061 478.574 148.335 477.858 148.796C477.142 149.256 476.548 149.89 476.128 150.64C475.707 151.391 475.474 152.235 475.448 153.1C475.422 153.964 475.605 154.821 475.979 155.597C476.542 156.855 477.22 158.056 478.003 159.185C478.385 159.769 478.876 160.269 479.449 160.656C480.022 161.043 480.665 161.31 481.34 161.44C482.015 161.57 482.709 161.561 483.38 161.414C484.052 161.267 484.688 160.984 485.251 160.583C485.815 160.181 486.294 159.668 486.661 159.075C487.029 158.482 487.276 157.82 487.39 157.127C487.503 156.435 487.481 155.726 487.323 155.043C487.165 154.36 486.876 153.716 486.471 153.148C486.02 152.514 485.633 151.835 485.315 151.122C484.884 150.131 484.166 149.3 483.257 148.741C482.348 148.182 481.292 147.923 480.234 147.998ZM429.633 148.674C428.918 148.728 428.223 148.935 427.59 149.279C426.958 149.623 426.402 150.099 425.959 150.674C425.516 151.25 425.196 151.914 425.017 152.623C424.839 153.333 424.807 154.072 424.924 154.795C426.055 164.653 429.132 174.175 433.97 182.782C438.837 191.363 445.357 198.845 453.136 204.775C454.216 205.637 455.586 206.025 456.945 205.855C458.305 205.685 459.542 204.97 460.386 203.867C461.229 202.764 461.61 201.364 461.443 199.975C461.277 198.586 460.577 197.321 459.498 196.459C452.748 191.356 447.096 184.89 442.892 177.463C438.718 170.041 436.075 161.823 435.127 153.317C434.971 151.97 434.313 150.736 433.29 149.871C432.267 149.006 430.957 148.578 429.633 148.674ZM463.959 151.755C463.151 151.812 462.367 152.061 461.671 152.484C460.975 152.907 460.386 153.492 459.952 154.19C459.518 154.889 459.25 155.682 459.172 156.505C459.093 157.329 459.204 158.16 459.498 158.931C461.113 163.775 463.638 168.249 466.933 172.102C467.36 172.669 467.895 173.141 468.506 173.49C469.117 173.838 469.791 174.057 470.487 174.131C471.183 174.206 471.886 174.135 472.554 173.923C473.223 173.711 473.842 173.362 474.375 172.898C474.907 172.435 475.342 171.865 475.652 171.224C475.963 170.583 476.142 169.884 476.18 169.17C476.218 168.456 476.114 167.742 475.873 167.07C475.633 166.398 475.261 165.784 474.781 165.263C472.294 162.386 470.397 159.027 469.205 155.386C468.849 154.271 468.141 153.309 467.191 152.652C466.241 151.994 465.104 151.679 463.959 151.755ZM446.94 152.093C446.181 152.147 445.443 152.373 444.779 152.753C444.114 153.133 443.541 153.659 443.099 154.292C442.656 154.926 442.357 155.651 442.221 156.417C442.086 157.182 442.117 157.969 442.314 158.72C443.523 164.201 445.528 169.466 448.262 174.339C451.019 179.199 454.472 183.61 458.506 187.425C459.231 188.159 460.152 188.657 461.153 188.857C462.154 189.056 463.191 188.948 464.132 188.546C465.073 188.145 465.877 187.467 466.442 186.599C467.006 185.73 467.307 184.711 467.305 183.668C467.305 182.149 466.685 180.713 465.652 179.785C458.957 173.491 454.302 165.259 452.31 156.188C452.045 154.949 451.353 153.849 450.359 153.089C449.365 152.329 448.137 151.961 446.899 152.051L446.94 152.093ZM84.6791 159.86C83.4399 159.86 82.2833 160.282 81.3746 161.042C73.5902 166.984 67.0693 174.48 62.2082 183.077C57.3557 191.681 54.264 201.203 53.1206 211.064C53.0257 211.752 53.0642 212.452 53.2339 213.124C53.4036 213.796 53.7012 214.427 54.1097 214.982C54.5182 215.537 55.0296 216.004 55.6147 216.356C56.1998 216.709 56.8472 216.941 57.5198 217.038C58.1925 217.135 58.8772 217.095 59.535 216.922C60.1927 216.748 60.8106 216.444 61.3534 216.027C61.8961 215.609 62.3531 215.087 62.6982 214.489C63.0433 213.891 63.2698 213.229 63.3648 212.542C64.3061 204.021 66.9492 195.788 71.1304 188.354C75.3332 180.926 80.9853 174.46 87.7358 169.358C88.6 168.696 89.2392 167.773 89.5634 166.72C89.8876 165.667 89.8804 164.537 89.5429 163.488C89.2054 162.439 88.5546 161.525 87.6821 160.875C86.8096 160.224 85.7593 159.869 84.6791 159.86ZM371.762 163.533C366.268 163.533 360.816 164.377 355.57 166.065C354.919 166.259 354.312 166.583 353.783 167.016C353.254 167.45 352.814 167.986 352.488 168.594C352.162 169.201 351.956 169.869 351.883 170.557C351.809 171.246 351.869 171.943 352.059 172.608C352.248 173.274 352.565 173.894 352.989 174.434C353.414 174.975 353.938 175.424 354.533 175.758C355.127 176.091 355.78 176.301 356.454 176.376C357.128 176.452 357.81 176.391 358.461 176.197C362.765 174.809 367.249 174.097 371.762 174.086C376.306 174.086 380.767 174.846 385.063 176.197C386.057 176.521 387.124 176.529 388.123 176.221C389.122 175.913 390.006 175.303 390.659 174.471C391.312 173.639 391.703 172.625 391.781 171.561C391.858 170.498 391.619 169.435 391.094 168.514C390.406 167.305 389.277 166.424 387.954 166.065C382.711 164.4 377.253 163.546 371.762 163.533ZM90.3795 176.872C88.975 176.872 87.6532 177.463 86.7445 178.434C82.7093 182.248 79.2562 186.659 76.5004 191.52C73.7685 196.38 71.7635 201.63 70.5522 207.096C70.3894 207.77 70.3581 208.47 70.46 209.156C70.5618 209.841 70.7949 210.5 71.1459 211.094C71.4968 211.688 71.9588 212.205 72.5055 212.617C73.0521 213.028 73.6727 213.325 74.3317 213.492C74.9908 213.658 75.6755 213.69 76.3467 213.586C77.0179 213.482 77.6624 213.244 78.2435 212.885C78.8246 212.526 79.3309 212.054 79.7335 211.495C80.136 210.937 80.427 210.303 80.5897 209.629C81.5695 205.124 83.213 200.797 85.4639 196.796C87.7232 192.793 90.5645 189.163 93.8905 186.032C94.6567 185.312 95.1919 184.372 95.4261 183.336C95.6602 182.299 95.5824 181.215 95.2028 180.224C94.8231 179.234 94.1594 178.383 93.2987 177.785C92.4379 177.187 91.4204 176.869 90.3795 176.872ZM371.762 180.418C369.284 180.418 366.764 180.671 364.327 181.178C363.269 181.345 362.288 181.844 361.52 182.606C360.752 183.368 360.235 184.355 360.04 185.431C359.845 186.506 359.981 187.617 360.431 188.61C360.881 189.602 361.622 190.427 362.55 190.971C363.707 191.646 364.988 191.815 366.186 191.562C369.865 190.796 373.659 190.796 377.338 191.562C378.006 191.69 378.691 191.681 379.355 191.538C380.019 191.395 380.649 191.12 381.209 190.728C381.769 190.336 382.248 189.835 382.619 189.254C382.989 188.673 383.244 188.023 383.369 187.341C383.494 186.659 383.486 185.959 383.346 185.28C383.206 184.601 382.936 183.957 382.553 183.385C382.169 182.813 381.679 182.323 381.11 181.944C380.542 181.566 379.906 181.305 379.238 181.178C376.777 180.675 374.272 180.42 371.762 180.418ZM99.1778 191.815C97.5669 191.815 96.1211 192.533 95.2124 193.715C91.9131 197.58 89.3871 202.069 87.7771 206.928C87.5014 207.589 87.361 208.302 87.3645 209.021C87.368 209.74 87.5154 210.451 87.7975 211.11C88.0797 211.769 88.4907 212.362 89.0052 212.853C89.5198 213.343 90.1271 213.721 90.7899 213.963C91.4526 214.205 92.1568 214.306 92.8591 214.26C93.5615 214.214 94.2472 214.022 94.8741 213.695C95.5011 213.368 96.056 212.914 96.5049 212.36C96.9537 211.806 97.287 211.164 97.4842 210.473C98.6719 206.817 100.568 203.443 103.061 200.553C103.723 199.791 104.155 198.85 104.305 197.843C104.454 196.835 104.316 195.805 103.905 194.877C103.494 193.948 102.83 193.161 101.991 192.61C101.152 192.059 100.175 191.769 99.1778 191.773V191.815ZM371.762 197.261C371.101 197.261 370.399 197.261 369.738 197.387C369.055 197.438 368.389 197.627 367.778 197.944C367.167 198.26 366.624 198.698 366.18 199.231C365.736 199.764 365.401 200.381 365.193 201.048C364.985 201.715 364.909 202.417 364.969 203.115C365.03 203.812 365.225 204.489 365.544 205.109C365.863 205.728 366.299 206.276 366.828 206.721C367.356 207.166 367.966 207.5 368.621 207.702C369.277 207.904 369.966 207.971 370.647 207.898C371.402 207.822 372.163 207.822 372.919 207.898C373.597 207.957 374.279 207.878 374.927 207.666C375.576 207.455 376.177 207.115 376.697 206.666C377.216 206.218 377.644 205.669 377.957 205.051C378.269 204.433 378.459 203.758 378.516 203.065C378.573 202.372 378.495 201.674 378.289 201.012C378.082 200.35 377.749 199.735 377.31 199.204C376.871 198.673 376.334 198.235 375.729 197.916C375.124 197.598 374.464 197.403 373.786 197.345C373.113 197.286 372.438 197.258 371.762 197.261ZM110.496 204.31C108.72 204.31 107.191 205.239 106.2 206.632C105.432 207.763 104.769 208.964 104.217 210.22C103.885 210.852 103.682 211.546 103.621 212.261C103.56 212.975 103.642 213.695 103.862 214.376C104.083 215.057 104.437 215.685 104.903 216.222C105.369 216.758 105.937 217.192 106.572 217.497C107.208 217.801 107.897 217.97 108.599 217.993C109.3 218.016 109.999 217.893 110.652 217.631C111.306 217.369 111.9 216.973 112.399 216.468C112.897 215.963 113.29 215.36 113.553 214.695C113.871 213.981 114.258 213.303 114.709 212.668C115.265 211.879 115.597 210.947 115.667 209.977C115.737 209.007 115.544 208.035 115.108 207.17C114.672 206.305 114.01 205.581 113.197 205.076C112.383 204.571 111.448 204.306 110.496 204.31ZM123.921 214.23C122.551 214.23 121.238 214.786 120.27 215.776C119.301 216.765 118.757 218.108 118.757 219.507C118.757 220.906 119.301 222.249 120.27 223.238C121.238 224.228 122.551 224.784 123.921 224.784C125.29 224.784 126.603 224.228 127.572 223.238C128.54 222.249 129.084 220.906 129.084 219.507C129.084 218.108 128.54 216.765 127.572 215.776C126.603 214.786 125.29 214.23 123.921 214.23ZM372.134 214.23C370.764 214.135 369.414 214.6 368.38 215.522C367.346 216.444 366.712 217.749 366.619 219.148C366.526 220.548 366.981 221.928 367.883 222.984C368.786 224.041 370.062 224.688 371.431 224.784C372.11 224.831 372.79 224.741 373.434 224.519C374.078 224.298 374.673 223.948 375.185 223.492C375.697 223.035 376.116 222.48 376.419 221.858C376.721 221.236 376.9 220.559 376.946 219.866C376.992 219.173 376.904 218.477 376.687 217.819C376.47 217.161 376.129 216.553 375.682 216.03C375.235 215.506 374.692 215.078 374.083 214.769C373.474 214.461 372.812 214.277 372.134 214.23ZM139.328 221.153C138.276 221.08 137.227 221.341 136.325 221.9C135.423 222.459 134.712 223.289 134.289 224.277C133.97 224.99 133.583 225.669 133.132 226.303C132.728 226.871 132.438 227.515 132.28 228.198C132.123 228.881 132.1 229.59 132.214 230.282C132.327 230.975 132.575 231.637 132.942 232.23C133.309 232.823 133.788 233.336 134.352 233.737C134.915 234.139 135.551 234.422 136.223 234.569C136.895 234.716 137.588 234.725 138.263 234.595C138.938 234.465 139.581 234.198 140.154 233.811C140.727 233.424 141.219 232.924 141.6 232.34C142.393 231.21 143.084 230.009 143.665 228.752C144.042 227.97 144.223 227.105 144.193 226.235C144.163 225.364 143.922 224.515 143.493 223.762C143.063 223.01 142.458 222.378 141.732 221.923C141.005 221.467 140.179 221.203 139.328 221.153ZM189.929 221.786C188.603 221.692 187.293 222.128 186.275 223.002C185.258 223.876 184.613 225.121 184.477 226.472C183.522 234.996 180.865 243.229 176.67 250.66C172.478 258.083 166.84 264.549 160.105 269.656C159.571 270.083 159.124 270.613 158.791 271.216C158.457 271.82 158.243 272.484 158.16 273.172C158.078 273.86 158.128 274.558 158.31 275.226C158.491 275.893 158.8 276.518 159.217 277.064C159.635 277.61 160.154 278.067 160.744 278.408C161.335 278.749 161.985 278.968 162.658 279.052C163.331 279.137 164.014 279.085 164.668 278.899C165.321 278.714 165.932 278.399 166.467 277.972C174.251 272.03 180.772 264.533 185.633 255.937C190.486 247.333 193.577 237.811 194.721 227.95C194.844 227.217 194.815 226.466 194.634 225.747C194.454 225.027 194.127 224.354 193.675 223.772C193.222 223.19 192.655 222.712 192.009 222.37C191.364 222.028 190.655 221.829 189.929 221.786ZM155.644 224.91C154.491 224.816 153.341 225.124 152.381 225.783C151.421 226.442 150.708 227.414 150.357 228.541C149.165 232.182 147.269 235.541 144.781 238.418C144.301 238.939 143.929 239.553 143.689 240.225C143.448 240.896 143.344 241.611 143.382 242.325C143.42 243.039 143.599 243.738 143.91 244.379C144.22 245.02 144.655 245.589 145.187 246.053C145.72 246.517 146.339 246.866 147.007 247.078C147.676 247.29 148.379 247.361 149.075 247.286C149.771 247.212 150.445 246.993 151.056 246.644C151.667 246.296 152.202 245.823 152.629 245.257C155.927 241.406 158.453 236.932 160.064 232.086C160.358 231.315 160.469 230.484 160.39 229.66C160.312 228.837 160.044 228.044 159.61 227.345C159.176 226.647 158.587 226.062 157.891 225.639C157.195 225.216 156.411 224.967 155.603 224.91H155.644ZM172.663 225.248C171.43 225.159 170.207 225.529 169.22 226.29C168.234 227.05 167.549 228.149 167.293 229.385C166.287 233.895 164.616 238.222 162.336 242.217C160.086 246.203 157.259 249.818 153.951 252.94C153.187 253.657 152.653 254.593 152.418 255.626C152.182 256.658 152.257 257.739 152.631 258.728C153.005 259.717 153.663 260.567 154.517 261.169C155.371 261.77 156.383 262.094 157.421 262.1C158.866 262.1 160.147 261.509 161.097 260.58C165.117 256.762 168.556 252.351 171.3 247.494C174.067 242.597 176.05 237.363 177.289 231.875C177.486 231.124 177.518 230.337 177.382 229.572C177.246 228.806 176.947 228.081 176.505 227.447C176.062 226.814 175.489 226.288 174.825 225.908C174.16 225.528 173.422 225.302 172.663 225.248ZM369.82 231.031C369.142 231.026 368.47 231.157 367.841 231.417C367.213 231.677 366.641 232.061 366.157 232.547C365.674 233.033 365.289 233.611 365.025 234.249C364.76 234.887 364.621 235.573 364.616 236.265C364.61 236.958 364.739 237.646 364.993 238.288C365.248 238.93 365.623 239.515 366.099 240.009C366.575 240.503 367.141 240.896 367.765 241.166C368.389 241.437 369.06 241.579 369.738 241.584C371.084 241.715 372.44 241.715 373.786 241.584C374.464 241.523 375.124 241.326 375.727 241.005C376.331 240.683 376.867 240.244 377.304 239.71C377.741 239.177 378.071 238.561 378.276 237.898C378.48 237.234 378.555 236.536 378.495 235.843C378.435 235.15 378.243 234.476 377.928 233.859C377.613 233.243 377.183 232.695 376.661 232.248C376.14 231.801 375.537 231.464 374.888 231.255C374.238 231.046 373.555 230.97 372.877 231.031C372.122 231.11 371.361 231.11 370.605 231.031C370.33 231.009 370.054 231.009 369.779 231.031H369.82ZM287.124 233.015C286.033 233.012 284.969 233.362 284.085 234.015C283.201 234.668 282.542 235.59 282.203 236.65C281.863 237.709 281.861 238.851 282.196 239.912C282.531 240.973 283.186 241.898 284.067 242.555C290.787 247.667 296.411 254.132 300.59 261.551C304.791 268.968 307.462 277.185 308.438 285.697C308.492 286.417 308.689 287.118 309.018 287.757C309.347 288.395 309.801 288.958 310.351 289.411C310.902 289.863 311.537 290.195 312.219 290.387C312.9 290.578 313.612 290.625 314.312 290.523C315.011 290.422 315.683 290.175 316.285 289.798C316.887 289.421 317.408 288.921 317.813 288.33C318.219 287.739 318.502 287.07 318.645 286.363C318.787 285.655 318.786 284.926 318.641 284.219C317.499 274.357 314.407 264.836 309.554 256.232C304.688 247.651 298.167 240.168 290.387 234.239C289.462 233.446 288.291 233.012 287.083 233.015H287.124ZM365.235 247.367C363.943 247.36 362.695 247.847 361.738 248.734C360.78 249.621 360.183 250.842 360.064 252.157C359.944 253.472 360.312 254.784 361.093 255.836C361.875 256.887 363.014 257.601 364.285 257.836C369.195 258.827 374.246 258.827 379.156 257.836C379.838 257.731 380.493 257.488 381.082 257.12C381.671 256.752 382.181 256.267 382.583 255.694C382.986 255.121 383.272 254.471 383.424 253.783C383.576 253.096 383.592 252.384 383.471 251.689C383.349 250.995 383.093 250.333 382.716 249.742C382.34 249.15 381.852 248.642 381.28 248.247C380.708 247.852 380.065 247.578 379.388 247.442C378.711 247.305 378.014 247.309 377.338 247.452C373.659 248.218 369.865 248.218 366.186 247.452C365.873 247.38 365.555 247.337 365.235 247.325V247.367ZM281.382 250.069C280.342 250.066 279.324 250.384 278.463 250.982C277.603 251.581 276.939 252.431 276.559 253.421C276.18 254.412 276.102 255.496 276.336 256.533C276.57 257.569 277.105 258.509 277.871 259.229C281.176 262.353 284.067 265.983 286.298 269.951C288.567 273.963 290.225 278.304 291.214 282.826C291.438 283.862 291.963 284.805 292.72 285.532C293.477 286.258 294.43 286.735 295.456 286.899C296.482 287.063 297.533 286.907 298.471 286.452C299.409 285.996 300.191 285.262 300.714 284.346C301.416 283.08 301.54 281.644 301.251 280.336C300.029 274.853 298.011 269.588 295.262 264.717C292.518 259.86 289.079 255.449 285.059 251.631C284.574 251.143 284 250.757 283.369 250.496C282.738 250.235 282.063 250.105 281.382 250.111V250.069ZM356.354 262.606C355.155 262.732 354.035 263.282 353.191 264.163C352.347 265.043 351.831 266.198 351.733 267.426C351.635 268.655 351.961 269.88 352.654 270.888C353.347 271.897 354.364 272.626 355.528 272.948C360.785 274.619 366.257 275.473 371.762 275.481C377.256 275.481 382.708 274.637 387.913 272.948C389.228 272.557 390.336 271.647 390.994 270.42C391.653 269.193 391.807 267.749 391.424 266.405C391.041 265.062 390.151 263.929 388.95 263.256C387.749 262.583 386.336 262.426 385.021 262.817C380.718 264.204 376.233 264.916 371.721 264.928C367.218 264.928 362.716 264.21 358.42 262.817C357.752 262.605 357.05 262.533 356.354 262.606ZM272.625 264.97C271.632 264.974 270.661 265.271 269.828 265.825C268.995 266.378 268.337 267.166 267.931 268.093C267.525 269.02 267.39 270.047 267.542 271.05C267.693 272.054 268.124 272.991 268.784 273.75C271.272 276.628 273.169 279.987 274.36 283.628C274.68 284.584 275.261 285.425 276.034 286.053C276.807 286.681 277.741 287.069 278.723 287.172C279.706 287.274 280.697 287.086 281.578 286.63C282.46 286.174 283.194 285.469 283.696 284.599C284.522 283.206 284.604 281.56 284.109 280.125C282.489 275.262 279.949 270.772 276.632 266.912C276.147 266.305 275.536 265.815 274.843 265.479C274.15 265.143 273.392 264.969 272.625 264.97ZM345.119 276.199C343.93 276.254 342.796 276.727 341.909 277.539C341.022 278.35 340.437 279.45 340.252 280.652C340.067 281.853 340.295 283.083 340.895 284.134C341.496 285.184 342.434 285.989 343.549 286.414C352.462 290.332 362.06 292.357 371.762 292.366C381.478 292.362 391.091 290.337 400.016 286.414C400.645 286.154 401.218 285.769 401.702 285.282C402.186 284.796 402.571 284.216 402.835 283.577C403.1 282.938 403.239 282.252 403.244 281.559C403.249 280.865 403.121 280.177 402.866 279.534C402.611 278.891 402.235 278.305 401.758 277.811C401.282 277.316 400.715 276.923 400.09 276.652C399.465 276.382 398.793 276.24 398.114 276.234C397.436 276.229 396.762 276.36 396.133 276.621C388.443 280.039 380.148 281.807 371.762 281.813C363.418 281.813 355.074 280.04 347.432 276.621C346.703 276.302 345.911 276.158 345.119 276.199ZM261.307 277.507C260.359 277.511 259.43 277.782 258.622 278.29C257.814 278.797 257.158 279.523 256.727 280.386C256.296 281.25 256.106 282.218 256.178 283.185C256.25 284.151 256.581 285.079 257.135 285.866C257.57 286.503 257.944 287.181 258.251 287.892C258.634 288.788 259.254 289.557 260.04 290.114C260.826 290.671 261.748 290.993 262.704 291.046C263.659 291.098 264.61 290.879 265.45 290.411C266.29 289.944 266.987 289.247 267.462 288.398C268.329 286.794 268.329 284.937 267.627 283.417C267.046 282.173 266.355 280.987 265.562 279.871C265.096 279.152 264.464 278.56 263.723 278.148C262.981 277.736 262.152 277.516 261.307 277.507ZM247.511 287.385C246.2 287.482 244.974 288.086 244.084 289.074C243.193 290.063 242.705 291.361 242.719 292.704H253.046C253.054 291.974 252.913 291.251 252.633 290.58C252.353 289.909 251.94 289.304 251.42 288.804C250.9 288.304 250.284 287.92 249.611 287.676C248.938 287.432 248.223 287.333 247.511 287.385Z" fill="url(#paint0_linear_1437_3585)" fill-opacity="0.6"/>
<path d="M77.4504 0C77.4504 1.39944 77.9944 2.74157 78.9627 3.73113C79.931 4.72068 81.2444 5.27661 82.6138 5.27661C83.9832 5.27661 85.2965 4.72068 86.2648 3.73113C87.2331 2.74157 87.7771 1.39944 87.7771 0H77.4504ZM407.905 0C407.905 1.39944 408.449 2.74157 409.418 3.73113C410.386 4.72068 411.699 5.27661 413.069 5.27661C414.438 5.27661 415.752 4.72068 416.72 3.73113C417.688 2.74157 418.232 1.39944 418.232 0H407.905ZM289.644 0.29549C276.973 0.187785 264.506 3.55517 253.542 10.0467C242.722 16.4651 233.736 25.6694 227.482 36.7422C221.227 47.815 217.921 60.3697 217.894 73.1549C217.882 84.5135 220.473 95.7172 225.458 105.869C230.443 116.021 237.684 124.84 246.602 131.62C247.136 132.047 247.748 132.362 248.401 132.547C249.055 132.733 249.738 132.785 250.411 132.7C251.084 132.616 251.734 132.397 252.325 132.056C252.915 131.715 253.434 131.258 253.851 130.712C254.269 130.166 254.577 129.541 254.759 128.874C254.94 128.206 254.991 127.508 254.909 126.82C254.826 126.132 254.612 125.468 254.278 124.864C253.944 124.261 253.498 123.731 252.963 123.304C245.281 117.512 239.038 109.956 234.74 101.245C230.442 92.5332 228.209 82.911 228.221 73.1549C228.243 62.2289 231.065 51.4995 236.407 42.0346C241.748 32.5697 249.421 24.6993 258.664 19.2069C266.926 14.3228 276.197 11.495 285.727 10.9524C295.256 10.4097 304.777 12.1673 313.519 16.0831C314.52 16.5335 315.634 16.6478 316.702 16.4095C317.77 16.1712 318.737 15.5927 319.462 14.7572C320.188 13.9216 320.636 12.8723 320.74 11.7603C320.845 10.6483 320.602 9.53093 320.046 8.56921C319.437 7.51389 318.488 6.70798 317.361 6.28972C308.617 2.43119 299.209 0.393369 289.685 0.29549H289.644ZM40.8112 0.29549C31.271 0.401096 21.8476 2.45341 13.0943 6.33193C12.3872 6.52462 11.7282 6.86872 11.1611 7.34142C10.594 7.81412 10.1316 8.40462 9.8048 9.07377C9.47795 9.74292 9.29402 10.4754 9.26522 11.2227C9.23642 11.97 9.36339 12.7151 9.63773 13.4084C9.91207 14.1018 10.3275 14.7276 10.8565 15.2444C11.3855 15.7612 12.0159 16.1572 12.706 16.4062C13.3961 16.6551 14.1301 16.7512 14.8593 16.6883C15.5886 16.6253 16.2964 16.4046 16.9358 16.0409C25.672 12.1321 35.1855 10.3782 44.7076 10.9208C54.2296 11.4635 63.4933 14.2875 71.7501 19.1646C81.0001 24.6518 88.682 32.5199 94.0306 41.9852C99.3792 51.4504 102.208 62.1826 102.235 73.1127C102.246 82.8688 100.013 92.4909 95.7148 101.202C91.4167 109.914 85.1743 117.47 77.4917 123.262C76.9574 123.688 76.5106 124.219 76.1768 124.822C75.843 125.425 75.6287 126.09 75.5463 126.778C75.4638 127.466 75.5147 128.164 75.6962 128.831C75.8776 129.499 76.1859 130.124 76.6036 130.67C77.0213 131.216 77.5401 131.673 78.1305 132.014C78.7209 132.355 79.3712 132.574 80.0444 132.658C80.7175 132.742 81.4003 132.69 82.0538 132.505C82.7073 132.32 83.3187 132.004 83.853 131.578C92.7709 124.798 100.012 115.979 104.997 105.827C109.982 95.675 112.573 84.4713 112.561 73.1127C112.512 60.349 109.196 47.8204 102.943 36.7717C96.689 25.723 87.7154 16.5387 76.9134 10.1311C65.9574 3.61009 53.4897 0.213409 40.8112 0.29549ZM397.62 1.68852C396.776 1.75137 395.96 2.02519 395.244 2.48588C394.528 2.94657 393.934 3.58002 393.514 4.33049C393.094 5.08097 392.86 5.92548 392.834 6.78973C392.809 7.65399 392.991 8.5115 393.365 9.28683C395.227 13.4662 398.316 16.9486 402.205 19.2491C405.505 21.1859 409.243 22.2052 413.048 22.2052C416.853 22.2052 420.592 21.1859 423.891 19.2491C427.795 16.9554 430.9 13.4723 432.772 9.28683C433.353 8.01614 433.416 6.56177 432.947 5.24369C432.478 3.9256 431.517 2.85175 430.273 2.25839C429.03 1.66502 427.607 1.60074 426.317 2.07969C425.027 2.55864 423.976 3.54157 423.396 4.81227C422.477 6.81896 421.018 8.51643 419.189 9.70563C417.36 10.8948 415.237 11.5265 413.069 11.5265C410.901 11.5265 408.778 10.8948 406.949 9.70563C405.12 8.51643 403.661 6.81896 402.742 4.81227C402.309 3.81406 401.584 2.97756 400.667 2.41809C399.75 1.85862 398.685 1.60372 397.62 1.68852ZM347.019 2.2795C346.297 2.32789 345.592 2.53099 344.952 2.87559C344.311 3.2202 343.749 3.69861 343.301 4.27979C342.853 4.86096 342.529 5.5319 342.352 6.24905C342.174 6.96621 342.146 7.71355 342.269 8.44258C343.544 19.7267 347.388 30.5488 353.492 40.0417C359.596 49.5346 367.792 57.4344 377.421 63.1082C388.26 69.4787 400.545 72.8314 413.048 72.8314C425.552 72.8314 437.837 69.4787 448.675 63.1082C458.305 57.4344 466.5 49.5346 472.604 40.0417C478.709 30.5488 482.552 19.7267 483.827 8.44258C483.972 7.73592 483.973 7.00646 483.831 6.29935C483.688 5.59224 483.405 4.92251 483 4.33161C482.594 3.7407 482.074 3.24119 481.471 2.86398C480.869 2.48677 480.197 2.23989 479.498 2.1386C478.798 2.03731 478.086 2.08378 477.405 2.27513C476.724 2.46648 476.088 2.79864 475.538 3.25105C474.987 3.70347 474.533 4.26652 474.204 4.90536C473.875 5.5442 473.678 6.24525 473.625 6.96512C472.561 16.6607 469.282 25.9648 464.051 34.1262C458.82 42.2877 451.784 49.0777 443.512 53.9481C434.243 59.3923 423.739 62.2573 413.048 62.2573C402.357 62.2573 391.853 59.3923 382.584 53.9481C374.32 49.0728 367.292 42.2806 362.069 34.1195C356.845 25.9584 353.572 16.6568 352.513 6.96512C352.357 5.61778 351.699 4.38361 350.676 3.51892C349.653 2.65424 348.343 2.22548 347.019 2.32171V2.2795ZM381.345 5.40325C380.537 5.45957 379.754 5.7093 379.058 6.13228C378.361 6.55525 377.773 7.13961 377.338 7.83813C376.904 8.53666 376.637 9.32978 376.558 10.1534C376.479 10.977 376.591 11.8081 376.884 12.5794C379.865 21.5254 385.928 29.0575 393.944 33.7703C399.756 37.185 406.344 38.9821 413.048 38.9821C419.753 38.9821 426.34 37.185 432.153 33.7703C440.184 29.0369 446.249 21.4723 449.212 12.495C449.502 11.8299 449.653 11.1107 449.657 10.3829C449.661 9.655 449.518 8.93413 449.236 8.26558C448.955 7.59703 448.541 6.99526 448.021 6.49811C447.5 6.00096 446.885 5.61918 446.213 5.37677C445.542 5.13437 444.828 5.03658 444.118 5.08956C443.408 5.14254 442.716 5.34514 442.086 5.68462C441.456 6.02411 440.901 6.49313 440.457 7.0622C440.013 7.63127 439.689 8.28809 439.505 8.99134C437.345 15.5879 432.892 21.1453 426.989 24.6101C422.748 27.1027 417.941 28.4145 413.048 28.4145C408.155 28.4145 403.348 27.1027 399.107 24.6101C393.205 21.1453 388.751 15.5879 386.591 8.99134C386.236 7.87664 385.527 6.91467 384.577 6.25729C383.627 5.59991 382.49 5.28457 381.345 5.36104V5.40325ZM364.327 5.74095C363.567 5.79543 362.829 6.02085 362.165 6.40106C361.501 6.78128 360.927 7.30688 360.485 7.94023C360.043 8.57358 359.743 9.299 359.607 10.0645C359.472 10.8301 359.504 11.6168 359.7 12.3684C361.361 19.8961 364.53 26.9901 369.01 33.2024C373.489 39.4146 379.18 44.61 385.724 48.4604C394.046 53.3411 403.474 55.9092 413.069 55.9092C422.664 55.9092 432.092 53.3411 440.414 48.4604C446.958 44.61 452.649 39.4146 457.128 33.2024C461.607 26.9901 464.777 19.8961 466.437 12.3684C466.766 11.0081 466.552 9.57014 465.844 8.3708C465.135 7.17146 463.989 6.30899 462.658 5.97312C461.327 5.63726 459.92 5.85551 458.746 6.57986C457.572 7.30422 456.728 8.47534 456.4 9.8356C455.07 15.9786 452.503 21.7712 448.862 26.8441C445.22 31.9171 440.585 36.1593 435.251 39.3002C428.496 43.2707 420.84 45.3603 413.048 45.3603C405.256 45.3603 397.6 43.2707 390.846 39.3002C385.516 36.1639 380.883 31.9283 377.242 26.8629C373.601 21.7975 371.031 16.0132 369.697 9.87781C369.433 8.64645 368.746 7.55234 367.761 6.79353C366.776 6.03471 365.558 5.66132 364.327 5.74095ZM493.617 13.5081C492.526 13.505 491.463 13.855 490.578 14.508C489.694 15.1609 489.035 16.0833 488.696 17.1427C488.356 18.2022 488.354 19.3443 488.689 20.4052C489.024 21.4662 489.679 22.3914 490.561 23.0482C492.337 24.399 494.072 25.8343 495.683 27.3962V13.9302C495.063 13.6348 494.361 13.4659 493.617 13.4659V13.5081ZM167.293 13.5081C166.054 13.5081 164.897 13.9302 163.988 14.7323C155.076 21.5076 147.838 30.3196 142.853 40.4639C137.869 50.6081 135.275 61.8034 135.28 73.1549C135.303 85.9361 138.603 98.4879 144.85 109.56C151.097 120.633 160.074 129.839 170.887 136.263C180.5 141.951 191.285 145.258 202.375 145.918C213.465 146.578 224.552 144.572 234.747 140.062C235.376 139.802 235.949 139.417 236.433 138.93C236.917 138.444 237.302 137.864 237.567 137.225C237.831 136.586 237.97 135.9 237.975 135.207C237.981 134.513 237.852 133.825 237.597 133.182C237.342 132.539 236.966 131.953 236.489 131.459C236.013 130.964 235.446 130.571 234.821 130.3C234.196 130.03 233.525 129.888 232.846 129.882C232.167 129.877 231.493 130.008 230.864 130.269C222.125 134.171 212.61 135.918 203.087 135.368C193.565 134.818 184.303 131.987 176.05 127.103C166.808 121.611 159.134 113.74 153.793 104.275C148.452 94.8103 145.629 84.0809 145.607 73.1549C145.602 63.406 147.838 53.7922 152.136 45.0887C156.434 36.3851 162.673 28.8354 170.35 23.0482C171.234 22.3893 171.891 21.4603 172.225 20.3952C172.559 19.3301 172.553 18.184 172.208 17.1225C171.864 16.0609 171.198 15.1387 170.307 14.4891C169.416 13.8394 168.346 13.4959 167.252 13.5081H167.293ZM0 13.9725V27.4384C6.19601 33.2677 11.1395 40.3489 14.517 48.2332C17.8945 56.1174 19.6325 64.6327 19.6208 73.2393C19.6208 90.7577 12.3095 107.347 0 119.04V132.633C9.246 125.872 16.7844 116.96 21.9919 106.632C27.1995 96.3039 29.9265 84.8576 29.9475 73.2393C29.9589 61.8807 27.3684 50.6771 22.3833 40.5249C17.3983 30.3728 10.1571 21.5541 1.23921 14.7745C0.863035 14.4631 0.445881 14.2073 0 14.0147L0 13.9725ZM289.024 17.2229C279.452 17.2189 270.048 19.7962 261.762 24.6945C253.459 29.6277 246.566 36.6973 241.768 45.1996C236.97 53.702 234.436 63.3403 234.417 73.1549C234.408 80.8689 235.964 88.5011 238.985 95.5702C242.007 102.639 246.429 108.992 251.972 114.228C252.694 114.959 253.611 115.457 254.608 115.658C255.606 115.859 256.639 115.754 257.579 115.357C258.518 114.961 259.322 114.29 259.89 113.428C260.458 112.566 260.764 111.552 260.77 110.513C260.77 108.951 260.151 107.558 259.118 106.63C254.578 102.377 250.954 97.2037 248.479 91.4401C246.004 85.6765 244.732 79.4491 244.743 73.1549C244.762 65.1954 246.819 57.3796 250.711 50.4848C254.602 43.59 260.192 37.8566 266.925 33.8547C272.248 30.6981 278.156 28.711 284.273 28.0204C290.39 27.3299 296.58 27.9512 302.449 29.8445C303.764 30.2363 305.177 30.0785 306.377 29.4056C307.578 28.7327 308.468 27.5999 308.852 26.2564C309.235 24.9129 309.08 23.4688 308.422 22.2418C307.764 21.0147 306.655 20.1053 305.34 19.7134C300.058 18.0344 294.557 17.1805 289.024 17.1806V17.2229ZM41.4308 17.2229C35.8983 17.2227 30.3975 18.0766 25.1146 19.7556C24.4636 19.9496 23.8565 20.2728 23.3277 20.7066C22.799 21.1404 22.3591 21.6764 22.033 22.284C21.707 22.8916 21.5013 23.5588 21.4276 24.2477C21.3539 24.9365 21.4136 25.6334 21.6035 26.2986C21.7934 26.9638 22.1096 27.5843 22.5341 28.1247C22.9586 28.665 23.4831 29.1146 24.0776 29.4478C24.6721 29.781 25.3251 29.9912 25.9991 30.0665C26.6732 30.1418 27.3551 30.0807 28.0061 29.8867C33.8718 27.9871 40.0608 27.3588 46.1775 28.0421C52.2943 28.7253 58.2043 30.705 63.53 33.8547C70.2687 37.8602 75.8627 43.6003 79.7546 50.5031C83.6465 57.4059 85.7004 65.2305 85.7118 73.1971C85.7174 79.4842 84.4423 85.7036 81.9674 91.4595C79.4926 97.2154 75.8723 102.382 71.337 106.63C70.807 107.098 70.3759 107.672 70.07 108.317C69.764 108.961 69.5896 109.662 69.5574 110.378C69.5252 111.093 69.6358 111.808 69.8826 112.478C70.1293 113.148 70.507 113.76 70.9926 114.277C71.4782 114.793 72.0616 115.203 72.7072 115.481C73.3529 115.76 74.0472 115.901 74.748 115.897C75.4488 115.892 76.1414 115.742 76.7835 115.455C77.4256 115.168 78.0039 114.751 78.4831 114.228C84.0264 108.992 88.4481 102.639 91.4696 95.5702C94.4911 88.5011 96.0467 80.8689 96.0385 73.1549C96.0151 63.3362 93.4743 53.6951 88.6692 45.1924C83.8641 36.6897 76.9624 29.6223 68.652 24.6945C60.3943 19.7957 51.0203 17.2043 41.4721 17.1806L41.4308 17.2229ZM487.876 30.5621C486.838 30.5674 485.826 30.8919 484.972 31.4933C484.118 32.0947 483.461 32.9452 483.086 33.9338C482.712 34.9225 482.637 36.0035 482.873 37.036C483.108 38.0685 483.642 39.0046 484.406 39.7223C489.364 44.3917 493.22 50.1509 495.683 56.5653V36.4719C494.383 34.9479 493.004 33.4965 491.552 32.124C491.071 31.628 490.498 31.2345 489.867 30.9664C489.236 30.6983 488.559 30.5609 487.876 30.5621ZM172.993 30.5621C171.589 30.5621 170.267 31.1531 169.358 32.124C163.82 37.3552 159.401 43.7011 156.38 50.7625C153.359 57.8239 151.8 65.448 151.803 73.1549C151.815 82.9767 154.346 92.6237 159.144 101.134C163.942 109.644 170.839 116.721 179.148 121.658C185.679 125.525 192.924 127.965 200.426 128.822C207.927 129.68 215.521 128.936 222.727 126.639C223.724 126.375 224.622 125.813 225.305 125.024C225.987 124.236 226.423 123.256 226.556 122.212C226.689 121.168 226.514 120.107 226.052 119.166C225.591 118.224 224.864 117.446 223.966 116.93C223.343 116.571 222.655 116.348 221.944 116.276C221.233 116.203 220.515 116.282 219.835 116.508C213.967 118.401 207.776 119.022 201.659 118.332C195.543 117.641 189.634 115.654 184.311 112.497C177.573 108.492 171.979 102.752 168.087 95.8489C164.195 88.9461 162.141 81.1216 162.13 73.1549C162.124 66.8679 163.399 60.6485 165.874 54.8926C168.349 49.1367 171.969 43.9703 176.504 39.7223C177.27 39.0022 177.806 38.0622 178.04 37.0258C178.274 35.9893 178.196 34.9047 177.817 33.9142C177.437 32.9237 176.773 32.0737 175.912 31.4755C175.052 30.8773 174.034 30.5589 172.993 30.5621ZM289.892 34.108C282.938 33.9659 276.08 35.7764 270.064 39.3424C264.267 42.7828 259.451 47.714 256.096 53.6458C252.74 59.5776 250.963 66.3035 250.939 73.1549C250.939 83.0327 254.492 92.0663 260.399 98.9048C260.825 99.4715 261.361 99.9436 261.971 100.292C262.582 100.641 263.256 100.86 263.952 100.934C264.648 101.009 265.352 100.938 266.02 100.726C266.688 100.514 267.308 100.165 267.84 99.7014C268.373 99.2374 268.807 98.6676 269.118 98.0267C269.428 97.3858 269.608 96.687 269.646 95.973C269.684 95.2589 269.579 94.5444 269.339 93.8728C269.099 93.2012 268.727 92.5866 268.247 92.0663C263.715 86.8564 261.216 80.1256 261.225 73.1549C261.225 63.0238 266.595 53.5681 275.186 48.5026C281.087 45.0021 288.042 43.8451 294.725 45.2522C295.392 45.3769 296.077 45.3661 296.74 45.2204C297.403 45.0747 298.031 44.797 298.589 44.4031C299.148 44.0091 299.624 43.5067 299.992 42.9245C300.36 42.3423 300.613 41.6917 300.735 41.0098C300.857 40.328 300.846 39.6282 300.704 38.9505C300.561 38.2729 300.289 37.6305 299.904 37.0602C299.518 36.4899 299.027 36.0027 298.457 35.6265C297.887 35.2504 297.251 34.9926 296.583 34.8678C294.379 34.4121 292.14 34.1578 289.892 34.108ZM40.5221 34.108C38.2915 34.1502 36.0609 34.4035 33.8716 34.8678C33.2044 34.9926 32.5678 35.2504 31.9981 35.6265C31.4284 36.0027 30.9367 36.4899 30.5512 37.0602C30.1657 37.6305 29.894 38.2729 29.7514 38.9505C29.6088 39.6282 29.5983 40.328 29.7203 41.0098C29.8424 41.6917 30.0946 42.3423 30.4627 42.9245C30.8308 43.5067 31.3075 44.0091 31.8656 44.4031C32.4237 44.797 33.0523 45.0747 33.7154 45.2204C34.3785 45.3661 35.0632 45.3769 35.7304 45.2522C42.3995 43.8558 49.3382 45.0126 55.2273 48.5026C59.464 51.0121 62.9827 54.613 65.4325 58.946C67.8823 63.2791 69.1776 68.1928 69.189 73.1971C69.189 80.4155 66.5454 87.043 62.1669 92.1085C61.5071 92.8677 61.0758 93.8053 60.9245 94.8088C60.7732 95.8123 60.9084 96.8391 61.314 97.766C61.7195 98.6929 62.3781 99.4805 63.2108 100.034C64.0435 100.588 65.0149 100.885 66.0084 100.889C67.6607 100.889 69.1064 100.129 70.0152 98.9048C76.1448 91.7902 79.523 82.6341 79.5157 73.1549C79.4923 66.3035 77.7147 59.5776 74.3595 53.6458C71.0044 47.714 66.1885 42.7828 60.3907 39.3424C54.3748 35.7764 47.5166 33.9659 40.5634 34.108H40.5221ZM0 36.4719V56.4808C4.15001 67.1924 4.15001 79.1175 0 89.829L0 109.88C8.6478 99.6846 13.4135 86.6475 13.4247 73.1549C13.4308 59.6845 8.66165 46.6679 0 36.5141L0 36.4719ZM479.077 45.4633C478.084 45.4671 477.112 45.7637 476.28 46.3176C475.447 46.8715 474.788 47.6592 474.383 48.5861C473.977 49.513 473.842 50.5398 473.993 51.5433C474.145 52.5468 474.576 53.4844 475.236 54.2435C479.767 59.4535 482.267 66.1842 482.258 73.1549C482.258 83.286 476.888 92.7839 468.296 97.8494C462.407 101.339 455.468 102.496 448.799 101.1C448.132 100.972 447.447 100.98 446.783 101.124C446.118 101.267 445.488 101.542 444.928 101.934C444.368 102.326 443.889 102.827 443.519 103.408C443.148 103.989 442.893 104.639 442.768 105.321C442.644 106.003 442.652 106.703 442.792 107.382C442.932 108.061 443.201 108.705 443.585 109.277C443.968 109.849 444.458 110.339 445.027 110.717C445.596 111.096 446.232 111.357 446.899 111.484C455.698 113.257 465.116 111.906 473.46 107.01C479.263 103.566 484.083 98.6278 487.439 92.6879C490.794 86.7481 492.568 80.0135 492.585 73.1549C492.585 63.3193 488.991 54.2858 483.084 47.4051C482.604 46.8031 481.999 46.3169 481.314 45.9812C480.628 45.6456 479.879 45.4687 479.118 45.4633H479.077ZM181.792 45.4633C180.181 45.4633 178.735 46.2231 177.826 47.4051C171.696 54.5196 168.318 63.6757 168.326 73.1549C168.338 80.0094 170.106 86.7412 173.454 92.6807C176.802 98.6202 181.613 103.56 187.409 107.01C195.432 111.763 204.879 113.354 213.97 111.484C214.637 111.359 215.273 111.102 215.843 110.726C216.413 110.349 216.905 109.862 217.29 109.292C217.676 108.722 217.947 108.079 218.09 107.401C218.232 106.724 218.243 106.024 218.121 105.342C217.999 104.66 217.747 104.01 217.379 103.428C217.01 102.845 216.534 102.343 215.976 101.949C215.418 101.555 214.789 101.277 214.126 101.132C213.463 100.986 212.778 100.975 212.111 101.1C205.429 102.507 198.473 101.35 192.573 97.8494C188.344 95.3346 184.833 91.7314 182.391 87.3988C179.949 83.0661 178.66 78.1551 178.652 73.1549C178.652 65.9365 181.296 59.3091 185.674 54.2435C186.337 53.4817 186.769 52.5402 186.918 51.5328C187.068 50.5255 186.929 49.4953 186.519 48.5668C186.108 47.6383 185.443 46.8511 184.604 46.3004C183.766 45.7497 182.789 45.4589 181.792 45.4633ZM289.561 50.9932C285.72 50.9087 281.837 51.8374 278.326 53.9481C275.032 55.9015 272.295 58.7024 270.389 62.0721C268.483 65.4418 267.474 69.2628 267.462 73.1549C267.445 77.75 268.831 82.236 271.428 85.9876C272.211 87.1408 273.41 87.9287 274.762 88.1781C276.114 88.4274 277.507 88.1178 278.636 87.3173C279.764 86.5169 280.535 85.2911 280.779 83.9097C281.023 82.5282 280.72 81.1043 279.937 79.9512C279.006 78.6325 278.356 77.1294 278.027 75.5385C277.699 73.9475 277.701 72.304 278.031 70.7136C278.362 69.1232 279.015 67.6211 279.948 66.304C280.88 64.9869 282.073 63.8839 283.448 63.066C285.511 61.8534 287.896 61.3364 290.263 61.5886C290.945 61.661 291.633 61.5942 292.289 61.3921C292.944 61.19 293.554 60.8566 294.082 60.4114C294.611 59.9662 295.047 59.4181 295.366 58.7989C295.685 58.1797 295.881 57.5018 295.941 56.8047C296.001 56.1076 295.925 55.4052 295.717 54.7384C295.509 54.0716 295.174 53.4538 294.73 52.9208C294.286 52.3878 293.743 51.9504 293.132 51.6339C292.521 51.3175 291.855 51.1284 291.172 51.0776C290.622 51.0325 290.071 51.0043 289.52 50.9932H289.561ZM40.8938 50.9932L39.2415 51.0776C38.5635 51.1386 37.9038 51.3354 37.3002 51.6569C36.6966 51.9784 36.1608 52.4183 35.7236 52.9514C34.8405 54.028 34.412 55.4191 34.5326 56.8185C34.6531 58.218 35.3126 59.5112 36.3662 60.4137C37.4197 61.3161 38.7809 61.754 40.1503 61.6308C42.3167 61.4338 44.493 61.8742 46.4225 62.9C48.3519 63.9259 49.954 65.4943 51.0396 67.4203C52.1252 69.3463 52.6491 71.5494 52.5494 73.7697C52.4497 75.99 51.7307 78.1349 50.477 79.9512C50.0892 80.5222 49.8152 81.1656 49.6706 81.8448C49.5261 82.524 49.5139 83.2256 49.6348 83.9097C49.8788 85.2911 50.6498 86.5169 51.7782 87.3173C52.9066 88.1178 54.2999 88.4274 55.6517 88.1781C57.0035 87.9287 58.2029 87.1408 58.9862 85.9876C61.5973 82.2411 62.9981 77.7546 62.993 73.1549C62.982 69.2732 61.9773 65.4621 60.0787 62.1C58.1802 58.738 55.4538 55.9422 52.1706 53.9903C48.7599 51.9748 44.8741 50.9529 40.9351 51.0354L40.8938 50.9932ZM467.759 58.0005C466.811 58.0041 465.881 58.2747 465.073 58.7826C464.265 59.2904 463.61 60.0159 463.179 60.8794C462.748 61.7429 462.558 62.711 462.63 63.6776C462.702 64.6442 463.033 65.5718 463.587 66.3586C464.518 67.6773 465.168 69.1804 465.496 70.7714C465.825 72.3623 465.823 74.0059 465.493 75.5963C465.162 77.1866 464.509 78.6887 463.576 80.0058C462.643 81.3229 461.451 82.4259 460.076 83.2438C458.001 84.4652 455.6 84.9825 453.219 84.7212C452.541 84.663 451.858 84.7419 451.21 84.9533C450.562 85.1647 449.961 85.5045 449.441 85.9533C448.391 86.8597 447.737 88.1552 447.622 89.5546C447.507 90.9541 447.941 92.3429 448.828 93.4156C449.715 94.4882 450.982 95.1569 452.352 95.2745C456.689 95.6544 461.15 94.7679 465.198 92.3618C468.492 90.4084 471.228 87.6075 473.134 84.2377C475.04 80.868 476.05 77.047 476.062 73.1549C476.067 68.5552 474.666 64.0688 472.055 60.3222C471.58 59.6046 470.94 59.0175 470.191 58.6126C469.442 58.2077 468.607 57.9975 467.759 58.0005ZM193.11 58.0005C191.333 58.0005 189.805 58.9292 188.814 60.3222C186.217 64.0738 184.831 68.5599 184.848 73.1549C184.848 81.0487 188.979 88.436 195.671 92.3618C199.568 94.6709 204.075 95.6747 208.558 95.2322C209.241 95.1815 209.908 94.9923 210.519 94.6759C211.129 94.3595 211.672 93.922 212.116 93.3891C212.56 92.8561 212.896 92.2382 213.103 91.5714C213.311 90.9046 213.387 90.2023 213.327 89.5052C213.267 88.8081 213.071 88.1302 212.752 87.511C212.433 86.8918 211.997 86.3436 211.469 85.8984C210.94 85.4532 210.33 85.1199 209.675 84.9178C209.019 84.7157 208.331 84.6489 207.65 84.7212C205.483 84.9182 203.307 84.4778 201.378 83.452C199.448 82.4262 197.846 80.8577 196.76 78.9318C195.675 77.0058 195.151 74.8027 195.251 72.5823C195.35 70.362 196.069 68.2171 197.323 66.4009C197.891 65.6111 198.232 64.6753 198.309 63.6984C198.385 62.7215 198.194 61.7421 197.757 60.87C197.319 59.9979 196.653 59.2675 195.832 58.7606C195.011 58.2538 194.069 57.9906 193.11 58.0005ZM206.534 67.8783C205.165 67.8783 203.852 68.4342 202.883 69.4238C201.915 70.4134 201.371 71.7555 201.371 73.1549C201.371 74.5544 201.915 75.8965 202.883 76.886C203.852 77.8756 205.165 78.4315 206.534 78.4315C207.904 78.4315 209.217 77.8756 210.185 76.886C211.154 75.8965 211.698 74.5544 211.698 73.1549C211.698 71.7555 211.154 70.4134 210.185 69.4238C209.217 68.4342 207.904 67.8783 206.534 67.8783ZM289.148 67.8783C287.779 67.8783 286.465 68.4342 285.497 69.4238C284.529 70.4134 283.985 71.7555 283.985 73.1549C283.985 74.5544 284.529 75.8965 285.497 76.886C286.465 77.8756 287.779 78.4315 289.148 78.4315C290.518 78.4315 291.831 77.8756 292.799 76.886C293.768 75.8965 294.312 74.5544 294.312 73.1549C294.312 71.7555 293.768 70.4134 292.799 69.4238C291.831 68.4342 290.518 67.8783 289.148 67.8783ZM40.9351 67.8783C40.2571 67.9282 39.5953 68.1141 38.9875 68.4254C38.3797 68.7366 37.8379 69.1672 37.393 69.6924C36.948 70.2177 36.6087 70.8274 36.3943 71.4866C36.1799 72.1459 36.0947 72.8419 36.1435 73.5348C36.1923 74.2278 36.3742 74.9041 36.6788 75.5252C36.9834 76.1463 37.4047 76.7 37.9187 77.1547C38.4327 77.6094 39.0293 77.9562 39.6744 78.1753C40.3195 78.3943 41.0006 78.4814 41.6786 78.4315C43.0481 78.3308 44.3222 77.6782 45.2208 76.6174C46.1194 75.5566 46.5688 74.1744 46.4702 72.775C46.3716 71.3756 45.7331 70.0735 44.6951 69.1552C43.657 68.2368 42.3045 67.7775 40.9351 67.8783ZM454.747 67.8783C454.069 67.8284 453.388 67.9155 452.743 68.1346C452.098 68.3537 451.502 68.7004 450.988 69.1552C450.474 69.6098 450.052 70.1636 449.748 70.7847C449.443 71.4057 449.261 72.0821 449.212 72.775C449.164 73.4679 449.249 74.1639 449.463 74.8232C449.677 75.4825 450.017 76.0921 450.462 76.6174C450.907 77.1427 451.449 77.5732 452.056 77.8845C452.664 78.1957 453.326 78.3816 454.004 78.4315C455.373 78.5323 456.726 78.073 457.764 77.1547C458.802 76.2364 459.44 74.9343 459.539 73.5348C459.638 72.1354 459.188 70.7532 458.29 69.6924C457.391 68.6316 456.117 67.9791 454.747 67.8783ZM330.455 73.4926C312.985 73.478 296.12 80.03 283.072 91.901C270.024 103.772 261.704 120.133 259.696 137.867C259.523 138.859 259.631 139.881 260.007 140.812C260.384 141.743 261.013 142.544 261.821 143.121C262.629 143.698 263.582 144.027 264.567 144.068C265.552 144.11 266.528 143.862 267.379 143.355C268.078 142.935 268.67 142.354 269.108 141.657C269.545 140.96 269.816 140.168 269.899 139.345C270.958 129.653 274.232 120.351 279.455 112.19C284.679 104.029 291.706 97.237 299.971 92.3618C309.24 86.9175 319.744 84.0525 330.434 84.0525C341.125 84.0525 351.629 86.9175 360.898 92.3618C369.163 97.237 376.19 104.029 381.414 112.19C386.637 120.351 389.911 129.653 390.97 139.345C391.161 140.733 391.885 141.987 392.981 142.83C394.077 143.673 395.456 144.036 396.815 143.84C398.173 143.644 399.4 142.905 400.225 141.785C401.05 140.665 401.405 139.256 401.214 137.867C399.206 120.133 390.886 103.772 377.838 91.901C364.79 80.03 347.925 73.478 330.455 73.4926ZM495.683 89.7446C492.004 99.3179 485.263 107.337 476.557 112.497C471.232 115.647 465.322 117.627 459.205 118.31C453.088 118.993 446.899 118.365 441.034 116.465C440.042 116.154 438.981 116.154 437.99 116.467C436.999 116.78 436.123 117.391 435.477 118.221C434.83 119.05 434.443 120.059 434.366 121.116C434.289 122.173 434.525 123.23 435.044 124.148C435.38 124.755 435.831 125.287 436.37 125.714C436.909 126.142 437.525 126.456 438.183 126.639C448.327 129.868 459.173 129.998 469.388 127.013C479.603 124.028 488.742 118.059 495.683 109.838V89.7446ZM330.455 90.3778C318.038 90.3567 305.985 94.6607 296.283 102.58C286.581 110.499 279.81 121.561 277.087 133.941C276.831 134.946 276.871 136.006 277.201 136.988C277.532 137.97 278.139 138.83 278.946 139.461C279.753 140.092 280.725 140.466 281.738 140.535C282.752 140.604 283.764 140.367 284.646 139.851C285.264 139.493 285.803 139.008 286.23 138.427C286.656 137.846 286.961 137.181 287.124 136.474C288.454 130.331 291.021 124.539 294.662 119.466C298.303 114.393 302.939 110.151 308.273 107.01C315.023 103.047 322.671 100.962 330.455 100.962C338.239 100.962 345.887 103.047 352.637 107.01C357.971 110.151 362.607 114.393 366.248 119.466C369.889 124.539 372.456 130.331 373.786 136.474C374.016 137.508 374.545 138.446 375.305 139.168C376.064 139.889 377.019 140.361 378.044 140.52C379.069 140.679 380.117 140.52 381.053 140.062C381.988 139.603 382.766 138.868 383.287 137.952C384.03 136.685 384.154 135.25 383.824 133.941C381.108 121.554 374.34 110.482 364.638 102.554C354.935 94.6266 342.878 90.3166 330.455 90.3356V90.3778ZM330.455 107.263C322.465 107.244 314.671 109.794 308.177 114.551C301.683 119.309 296.818 126.033 294.27 133.773C294.042 134.427 293.943 135.12 293.977 135.814C294.012 136.507 294.18 137.187 294.471 137.814C294.763 138.441 295.172 139.004 295.676 139.469C296.181 139.934 296.769 140.294 297.41 140.527C298.05 140.759 298.728 140.861 299.407 140.826C300.085 140.791 300.751 140.619 301.364 140.321C301.978 140.023 302.528 139.605 302.984 139.09C303.439 138.574 303.791 137.973 304.019 137.318C306.16 130.713 310.599 125.14 316.493 121.658C320.735 119.165 325.542 117.853 330.434 117.853C335.327 117.853 340.134 119.165 344.375 121.658C350.278 125.122 354.731 130.68 356.891 137.276C357.346 138.597 358.296 139.68 359.531 140.285C360.767 140.891 362.187 140.97 363.48 140.506C364.773 140.041 365.832 139.071 366.424 137.808C367.017 136.545 367.095 135.094 366.64 133.773C364.099 126.025 359.237 119.292 352.742 114.526C346.248 109.761 338.45 107.205 330.455 107.221V107.263ZM495.683 118.956C486.999 127.167 476.16 132.61 464.494 134.62C452.828 136.629 440.842 135.117 430.005 130.269C429.009 129.829 427.903 129.721 426.844 129.959C425.785 130.198 424.826 130.771 424.103 131.598C423.381 132.425 422.932 133.464 422.82 134.566C422.707 135.669 422.938 136.779 423.478 137.741C424.08 138.812 425.03 139.633 426.163 140.062C437.403 145.036 449.709 146.958 461.889 145.642C474.069 144.325 485.71 139.815 495.683 132.548V118.956ZM330.455 124.19C326.31 124.188 322.252 125.399 318.76 127.681C315.268 129.963 312.489 133.219 310.752 137.065C310.461 137.692 310.295 138.37 310.261 139.063C310.228 139.755 310.328 140.447 310.556 141.1C310.784 141.752 311.136 142.353 311.591 142.866C312.047 143.38 312.596 143.797 313.209 144.094C313.822 144.39 314.487 144.561 315.164 144.595C315.841 144.629 316.519 144.527 317.157 144.293C317.796 144.06 318.383 143.701 318.886 143.236C319.389 142.77 319.797 142.208 320.087 141.582C321.037 139.429 322.648 137.53 324.755 136.263C326.135 135.454 327.665 134.949 329.247 134.78C330.829 134.612 332.429 134.784 333.942 135.285C335.455 135.786 336.849 136.605 338.035 137.689C339.22 138.774 340.17 140.1 340.823 141.582C341.219 142.462 341.845 143.214 342.631 143.756C343.418 144.297 344.335 144.606 345.282 144.65C346.229 144.693 347.17 144.469 348.001 144.003C348.832 143.536 349.521 142.845 349.993 142.004C350.861 140.442 350.902 138.627 350.158 137.065C348.43 133.213 345.653 129.95 342.159 127.667C338.665 125.384 334.602 124.177 330.455 124.19ZM165.599 141.075C164.921 141.026 164.24 141.113 163.595 141.332C162.95 141.551 162.353 141.898 161.839 142.352C161.325 142.807 160.904 143.361 160.599 143.982C160.295 144.603 160.113 145.279 160.064 145.972C160.015 146.665 160.101 147.361 160.315 148.02C160.529 148.68 160.869 149.289 161.314 149.815C161.759 150.34 162.3 150.77 162.908 151.082C163.516 151.393 164.178 151.579 164.856 151.629C166.225 151.729 167.578 151.27 168.616 150.352C169.654 149.434 170.292 148.131 170.391 146.732C170.489 145.333 170.04 143.95 169.141 142.89C168.243 141.829 166.969 141.176 165.599 141.075ZM330.083 141.075C329.382 141.089 328.691 141.249 328.053 141.544C327.414 141.84 326.841 142.265 326.369 142.794C325.896 143.323 325.534 143.945 325.304 144.622C325.074 145.299 324.982 146.017 325.033 146.732C325.083 147.446 325.276 148.143 325.598 148.779C325.921 149.415 326.367 149.977 326.909 150.431C327.451 150.886 328.078 151.222 328.751 151.421C329.425 151.62 330.131 151.676 330.827 151.586C332.196 151.486 333.47 150.833 334.369 149.772C335.268 148.712 335.717 147.329 335.618 145.93C335.52 144.53 334.881 143.228 333.843 142.31C332.805 141.392 331.453 140.932 330.083 141.033V141.075ZM288.611 146.648C279.093 146.718 269.685 148.727 260.936 152.557C259.659 153.078 258.638 154.095 258.095 155.386C257.553 156.676 257.535 158.134 258.044 159.438C258.554 160.742 259.549 161.786 260.812 162.341C262.074 162.895 263.501 162.914 264.777 162.393C273.517 158.49 283.032 156.744 292.554 157.294C302.076 157.844 311.338 160.675 319.591 165.559C328.841 171.046 336.523 178.914 341.872 188.379C347.22 197.845 350.049 208.577 350.076 219.507C350.076 229.26 347.833 238.876 343.528 247.579C339.223 256.283 332.976 263.831 325.292 269.614C324.207 270.481 323.504 271.754 323.338 273.151C323.171 274.548 323.555 275.956 324.404 277.064C325.253 278.173 326.498 278.891 327.865 279.061C329.232 279.231 330.61 278.839 331.694 277.972C340.612 271.192 347.853 262.373 352.838 252.221C357.823 242.069 360.414 230.866 360.403 219.507C360.375 206.722 357.069 194.167 350.815 183.094C344.56 172.021 335.575 162.817 324.755 156.399C313.791 149.907 301.323 146.54 288.652 146.648H288.611ZM41.8439 146.648C26.8484 146.511 12.1973 151.24 0 160.156L0 173.748C8.68361 165.537 19.5225 160.094 31.1884 158.084C42.8543 156.075 54.8404 157.587 65.6779 162.435C66.6784 162.886 67.7928 163 68.8609 162.762C69.9289 162.523 70.8954 161.945 71.6211 161.109C72.3468 160.274 72.7943 159.224 72.8991 158.112C73.004 157 72.7607 155.883 72.2044 154.921C71.5982 153.864 70.648 153.057 69.5195 152.642C60.776 148.783 51.3673 146.745 41.8439 146.648ZM149.779 147.998C148.935 148.061 148.119 148.335 147.403 148.796C146.687 149.256 146.093 149.89 145.673 150.64C145.252 151.391 145.019 152.235 144.993 153.1C144.967 153.964 145.15 154.821 145.524 155.597C147.394 159.784 150.499 163.267 154.405 165.559C157.7 167.488 161.431 168.503 165.228 168.503C169.025 168.503 172.755 167.488 176.05 165.559C179.956 163.267 183.061 159.784 184.931 155.597C185.263 154.965 185.466 154.271 185.527 153.556C185.588 152.841 185.506 152.122 185.286 151.441C185.065 150.76 184.711 150.132 184.245 149.595C183.78 149.059 183.212 148.625 182.576 148.32C181.941 148.016 181.251 147.847 180.549 147.823C179.848 147.8 179.149 147.924 178.496 148.186C177.842 148.448 177.248 148.844 176.75 149.349C176.251 149.854 175.858 150.457 175.596 151.122C174.682 153.141 173.222 154.85 171.389 156.047C169.555 157.245 167.424 157.882 165.248 157.882C163.072 157.882 160.941 157.245 159.108 156.047C157.274 154.85 155.814 153.141 154.901 151.122C154.468 150.124 153.743 149.287 152.826 148.728C151.908 148.168 150.844 147.914 149.779 147.998ZM99.1778 148.632C98.459 148.686 97.7593 148.893 97.1236 149.24C96.4879 149.587 95.9303 150.066 95.4867 150.647C95.0432 151.227 94.7234 151.896 94.5481 152.61C94.3728 153.325 94.3458 154.069 94.4688 154.795C95.7427 166.074 99.5814 176.892 105.678 186.384C111.775 195.876 119.96 203.779 129.58 209.46C140.423 215.839 152.716 219.196 165.228 219.196C177.739 219.196 190.032 215.839 200.875 209.46C210.495 203.779 218.68 195.876 224.777 186.384C230.874 176.892 234.712 166.074 235.986 154.795C236.131 154.088 236.132 153.359 235.989 152.651C235.847 151.944 235.564 151.275 235.158 150.684C234.752 150.093 234.232 149.593 233.63 149.216C233.028 148.839 232.356 148.592 231.656 148.491C230.957 148.389 230.245 148.436 229.564 148.627C228.882 148.819 228.247 149.151 227.696 149.603C227.146 150.056 226.692 150.619 226.363 151.257C226.034 151.896 225.837 152.597 225.783 153.317C224.724 163.009 221.451 172.31 216.228 180.472C211.004 188.633 203.977 195.425 195.712 200.3C186.95 205.488 177.06 208.361 166.938 208.659C156.816 208.956 146.781 206.669 137.741 202.004C128.702 197.339 120.944 190.444 115.17 181.943C109.396 173.442 105.787 163.603 104.672 153.317C104.516 151.97 103.858 150.736 102.835 149.871C101.812 149.006 100.502 148.578 99.1778 148.674V148.632ZM133.545 151.755C132.734 151.805 131.945 152.051 131.244 152.471C130.543 152.891 129.948 153.475 129.51 154.174C129.071 154.874 128.8 155.669 128.719 156.496C128.638 157.322 128.749 158.157 129.043 158.931C132.016 167.916 138.097 175.481 146.144 180.207C151.951 183.614 158.531 185.406 165.228 185.406C171.924 185.406 178.504 183.614 184.311 180.207C192.358 175.481 198.439 167.916 201.412 158.931C201.64 158.277 201.74 157.584 201.705 156.89C201.671 156.197 201.503 155.517 201.211 154.89C200.92 154.263 200.51 153.7 200.006 153.235C199.502 152.77 198.913 152.41 198.273 152.177C197.633 151.945 196.954 151.843 196.276 151.878C195.597 151.913 194.932 152.085 194.318 152.383C193.705 152.681 193.154 153.099 192.699 153.614C192.243 154.13 191.892 154.731 191.664 155.386C189.514 161.975 185.076 167.532 179.189 171.004C174.943 173.505 170.128 174.821 165.228 174.821C160.327 174.821 155.512 173.505 151.266 171.004C145.379 167.532 140.941 161.975 138.791 155.386C138.436 154.271 137.727 153.309 136.777 152.652C135.827 151.994 134.69 151.679 133.545 151.755ZM116.485 152.093C115.721 152.146 114.979 152.372 114.311 152.755C113.643 153.138 113.066 153.668 112.624 154.306C112.181 154.944 111.882 155.675 111.75 156.446C111.618 157.217 111.655 158.008 111.859 158.763C113.524 166.283 116.697 173.369 121.176 179.573C125.655 185.778 131.343 190.967 137.882 194.812C146.209 199.701 155.645 202.273 165.248 202.273C174.851 202.273 184.287 199.701 192.614 194.812C199.15 190.958 204.833 185.76 209.305 179.548C213.777 173.336 216.941 166.244 218.596 158.72C218.852 157.715 218.812 156.656 218.481 155.674C218.15 154.692 217.543 153.832 216.736 153.201C215.929 152.57 214.958 152.196 213.944 152.127C212.93 152.058 211.919 152.295 211.037 152.811C210.419 153.169 209.879 153.654 209.453 154.235C209.026 154.816 208.722 155.481 208.558 156.188C207.229 162.331 204.662 168.123 201.02 173.196C197.379 178.269 192.744 182.511 187.409 185.652C180.66 189.615 173.012 191.7 165.228 191.7C157.443 191.7 149.795 189.615 143.046 185.652C137.716 182.516 133.083 178.28 129.442 173.215C125.801 168.15 123.231 162.365 121.897 156.23C121.632 154.991 120.939 153.891 119.945 153.131C118.952 152.371 117.723 152.003 116.485 152.093ZM415.134 159.818C413.895 159.818 412.738 160.282 411.83 161.042C402.917 167.817 395.68 176.629 390.695 186.774C385.71 196.918 383.116 208.113 383.121 219.465C383.145 232.246 386.444 244.798 392.691 255.87C398.939 266.943 407.915 276.149 418.728 282.573C428.342 288.261 439.126 291.568 450.216 292.228C461.306 292.888 472.394 290.882 482.588 286.372C483.231 286.124 483.819 285.748 484.318 285.265C484.817 284.782 485.216 284.203 485.493 283.56C485.77 282.917 485.918 282.225 485.93 281.522C485.941 280.82 485.815 280.123 485.56 279.471C485.304 278.82 484.924 278.227 484.441 277.727C483.958 277.227 483.383 276.831 482.748 276.562C482.114 276.292 481.433 276.155 480.746 276.158C480.059 276.161 479.379 276.304 478.747 276.579C470.005 280.495 460.484 282.252 450.954 281.71C441.424 281.167 432.153 278.339 423.891 273.455C414.643 267.959 406.965 260.082 401.624 250.609C396.282 241.136 393.463 230.398 393.448 219.465C393.443 209.716 395.679 200.102 399.977 191.398C404.275 182.695 410.514 175.145 418.191 169.358C419.072 168.701 419.728 167.776 420.063 166.715C420.398 165.654 420.395 164.512 420.056 163.453C419.716 162.393 419.057 161.471 418.173 160.818C417.289 160.165 416.225 159.815 415.134 159.818ZM245.776 159.818C244.674 159.802 243.596 160.147 242.7 160.802C241.803 161.457 241.136 162.388 240.794 163.459C240.453 164.529 240.455 165.684 240.802 166.753C241.148 167.822 241.82 168.749 242.719 169.4C250.396 175.187 256.635 182.737 260.933 191.441C265.231 200.144 267.467 209.758 267.462 219.507C267.435 230.437 264.607 241.169 259.258 250.635C253.91 260.1 246.228 267.968 236.978 273.455C228.724 278.339 219.462 281.17 209.94 281.72C200.418 282.27 190.903 280.523 182.163 276.621C181.168 276.181 180.062 276.073 179.003 276.311C177.943 276.55 176.984 277.123 176.262 277.95C175.54 278.777 175.091 279.816 174.978 280.918C174.866 282.021 175.097 283.132 175.637 284.093C176.225 285.159 177.161 285.98 178.281 286.414C188.475 290.924 199.562 292.93 210.652 292.27C221.743 291.61 232.527 288.304 242.141 282.615C252.961 276.197 261.946 266.992 268.201 255.92C274.456 244.847 277.761 232.292 277.789 219.507C277.8 208.148 275.21 196.945 270.225 186.793C265.24 176.64 257.998 167.822 249.08 161.042C248.149 160.264 246.979 159.845 245.776 159.86V159.818ZM495.683 160.113C486.437 166.874 478.898 175.787 473.691 186.115C468.483 196.442 465.756 207.889 465.735 219.507C465.724 230.866 468.314 242.069 473.299 252.221C478.284 262.373 485.525 271.192 494.443 277.972C494.856 278.309 495.27 278.563 495.683 278.732V265.308C489.489 259.477 484.546 252.395 481.169 244.512C477.792 236.628 476.053 228.113 476.062 219.507C476.062 202.031 483.373 185.399 495.683 173.748V160.113ZM289.272 163.49C283.74 163.49 278.239 164.344 272.956 166.023C272.305 166.217 271.698 166.54 271.169 166.974C270.64 167.408 270.2 167.944 269.874 168.552C269.216 169.779 269.061 171.223 269.445 172.566C269.828 173.91 270.718 175.042 271.919 175.715C273.12 176.388 274.533 176.546 275.847 176.154C281.716 174.261 287.906 173.64 294.023 174.33C300.14 175.021 306.049 177.008 311.371 180.165C318.102 184.175 323.688 189.918 327.573 196.82C331.457 203.723 333.505 211.544 333.512 219.507C333.517 225.794 332.242 232.013 329.767 237.769C327.293 243.525 323.672 248.692 319.137 252.94C318.607 253.408 318.176 253.982 317.87 254.626C317.564 255.271 317.39 255.972 317.357 256.687C317.325 257.403 317.436 258.117 317.683 258.788C317.929 259.458 318.307 260.07 318.793 260.586C319.278 261.103 319.862 261.513 320.507 261.791C321.153 262.07 321.847 262.211 322.548 262.206C323.249 262.202 323.941 262.052 324.583 261.765C325.226 261.478 325.804 261.06 326.283 260.538C331.829 255.31 336.255 248.966 339.284 241.905C342.312 234.843 343.877 227.217 343.88 219.507C343.864 209.681 341.326 200.031 336.521 191.521C331.715 183.01 324.81 175.936 316.493 171.004C308.219 166.115 298.83 163.538 289.272 163.533V163.49ZM41.183 163.533C33.3652 163.535 25.6398 165.26 18.533 168.589C11.4262 171.918 5.10502 176.773 0 182.824L0 202.96C3.67054 193.37 10.4121 185.335 19.1251 180.165C24.4507 177.015 30.3608 175.035 36.4775 174.352C42.5943 173.669 48.7833 174.297 54.649 176.197C55.3105 176.426 56.0107 176.516 56.7072 176.461C57.4037 176.405 58.0819 176.206 58.701 175.876C59.32 175.545 59.8669 175.089 60.3085 174.536C60.7502 173.983 61.0774 173.344 61.2705 172.658C61.4635 171.972 61.5183 171.253 61.4315 170.544C61.3447 169.836 61.1182 169.153 60.7656 168.537C60.413 167.92 59.9418 167.384 59.3803 166.959C58.8189 166.534 58.1789 166.23 57.4992 166.065C52.2163 164.386 46.7155 163.533 41.183 163.533ZM420.835 176.872C419.43 176.872 418.108 177.463 417.199 178.434C411.661 183.665 407.243 190.011 404.221 197.072C401.2 204.134 399.642 211.758 399.644 219.465C399.656 229.287 402.187 238.934 406.985 247.444C411.783 255.954 418.681 263.031 426.989 267.967C433.52 271.835 440.766 274.275 448.267 275.132C455.768 275.99 463.362 275.246 470.568 272.948C471.883 272.557 472.991 271.647 473.65 270.42C474.308 269.193 474.462 267.749 474.079 266.405C473.696 265.062 472.806 263.929 471.605 263.256C470.404 262.583 468.991 262.426 467.677 262.817C461.808 264.708 455.617 265.328 449.501 264.638C443.385 263.947 437.476 261.961 432.153 258.807C425.42 254.805 419.83 249.072 415.938 242.177C412.047 235.282 409.989 227.466 409.971 219.507C409.965 213.22 411.24 207.001 413.715 201.245C416.19 195.489 419.81 190.322 424.346 186.074C425.112 185.354 425.647 184.414 425.881 183.378C426.115 182.341 426.037 181.257 425.658 180.266C425.278 179.276 424.614 178.426 423.754 177.828C422.893 177.229 421.875 176.911 420.835 176.914V176.872ZM240.034 176.872C238.988 176.868 237.965 177.189 237.101 177.792C236.237 178.396 235.573 179.253 235.196 180.251C234.82 181.249 234.75 182.34 234.994 183.38C235.238 184.42 235.786 185.36 236.565 186.074C241.1 190.322 244.72 195.489 247.195 201.245C249.67 207.001 250.945 213.22 250.939 219.507C250.921 227.466 248.863 235.282 244.972 242.177C241.08 249.072 235.49 254.805 228.758 258.807C223.435 261.964 217.526 263.951 211.409 264.641C205.293 265.332 199.102 264.711 193.234 262.817C192.583 262.623 191.901 262.562 191.227 262.638C190.553 262.713 189.9 262.923 189.305 263.256C188.711 263.59 188.186 264.039 187.762 264.579C187.337 265.12 187.021 265.74 186.831 266.405C186.641 267.071 186.581 267.768 186.655 268.456C186.729 269.145 186.935 269.813 187.261 270.42C187.587 271.028 188.027 271.564 188.555 271.997C189.084 272.431 189.691 272.754 190.342 272.948C197.542 275.24 205.128 275.98 212.622 275.123C220.116 274.266 227.354 271.829 233.88 267.967C242.19 263.04 249.092 255.972 253.897 247.469C258.702 238.967 261.243 229.326 261.266 219.507C261.274 211.793 259.719 204.161 256.697 197.092C253.676 190.023 249.254 183.67 243.711 178.434C243.236 177.941 242.67 177.549 242.046 177.281C241.422 177.013 240.752 176.874 240.076 176.872H240.034ZM288.363 180.418C286.133 180.46 283.902 180.756 281.713 181.178C280.655 181.345 279.674 181.844 278.906 182.606C278.138 183.368 277.621 184.355 277.426 185.431C277.231 186.506 277.368 187.617 277.817 188.61C278.267 189.602 279.008 190.427 279.937 190.971C281.093 191.646 282.374 191.815 283.572 191.562C290.241 190.166 297.18 191.322 303.069 194.812C307.305 197.322 310.824 200.923 313.274 205.256C315.724 209.589 317.019 214.503 317.03 219.507C317.03 226.768 314.387 233.395 310.008 238.418C309.348 239.178 308.917 240.115 308.766 241.119C308.614 242.122 308.75 243.149 309.155 244.076C309.561 245.003 310.219 245.79 311.052 246.344C311.885 246.898 312.856 247.195 313.85 247.199C315.502 247.199 316.948 246.439 317.856 245.257C323.986 238.142 327.364 228.986 327.357 219.507C327.341 212.648 325.567 205.914 322.211 199.974C318.856 194.034 314.036 189.096 308.232 185.652C302.216 182.086 295.358 180.276 288.405 180.418H288.363ZM42.0917 180.418C35.1167 180.294 28.2427 182.134 22.2231 185.737C16.4313 189.173 11.6193 194.098 8.26447 200.022C4.90967 205.946 3.12863 212.663 3.09802 219.507C3.09802 229.385 6.69171 238.376 12.5986 245.257C13.278 246.089 14.1918 246.688 15.2157 246.971C16.2397 247.254 17.3241 247.208 18.3215 246.839C19.319 246.47 20.181 245.796 20.7904 244.909C21.3998 244.021 21.7269 242.964 21.7274 241.88C21.7274 240.613 21.273 239.347 20.4469 238.418C15.9151 233.208 13.4159 226.478 13.4247 219.507C13.4247 209.376 18.7946 199.878 27.3865 194.812C33.2755 191.322 40.2142 190.166 46.8833 191.562C47.5505 191.687 48.2352 191.676 48.8984 191.53C49.5615 191.385 50.1901 191.107 50.7482 190.713C51.3063 190.319 51.783 189.817 52.151 189.234C52.5191 188.652 52.7714 188.001 52.8935 187.32C53.0155 186.638 53.005 185.938 52.8624 185.26C52.7198 184.583 52.448 183.94 52.0625 183.37C51.677 182.8 51.1854 182.313 50.6157 181.936C50.046 181.56 49.4093 181.302 48.7421 181.178C46.5519 180.722 44.3262 180.468 42.0917 180.418ZM495.683 182.824C487.057 192.999 482.293 206.002 482.258 219.465C482.232 232.964 487.002 246.014 495.683 256.19V236.181C491.548 225.481 491.548 213.575 495.683 202.875V182.782V182.824ZM429.633 191.773C428.022 191.773 426.576 192.575 425.626 193.757C419.496 200.872 416.118 210.028 416.126 219.507C416.149 226.358 417.927 233.084 421.282 239.016C424.637 244.948 429.453 249.879 435.251 253.319C443.273 258.073 452.72 259.664 461.811 257.794C462.478 257.669 463.115 257.411 463.685 257.035C464.254 256.659 464.746 256.172 465.131 255.602C465.517 255.031 465.789 254.389 465.931 253.711C466.074 253.034 466.084 252.334 465.962 251.652C465.84 250.97 465.588 250.32 465.22 249.737C464.852 249.155 464.375 248.653 463.817 248.259C463.259 247.865 462.63 247.587 461.967 247.441C461.304 247.296 460.619 247.285 459.952 247.41C453.275 248.83 446.32 247.688 440.414 244.201C436.179 241.683 432.665 238.073 430.222 233.732C427.779 229.392 426.494 224.472 426.494 219.465C426.494 212.246 429.137 205.619 433.516 200.596C434.178 199.834 434.61 198.892 434.76 197.885C434.91 196.878 434.771 195.847 434.36 194.919C433.95 193.99 433.285 193.203 432.446 192.652C431.607 192.102 430.63 191.811 429.633 191.815V191.773ZM231.319 191.815C230.321 191.811 229.345 192.102 228.506 192.652C227.667 193.203 227.002 193.99 226.591 194.919C226.181 195.847 226.042 196.878 226.192 197.885C226.342 198.892 226.774 199.834 227.436 200.596C231.967 205.805 234.467 212.536 234.458 219.507C234.458 229.638 229.088 239.136 220.537 244.201C214.637 247.702 207.682 248.859 200.999 247.452C200.332 247.327 199.647 247.338 198.984 247.484C198.321 247.629 197.693 247.907 197.134 248.301C196.576 248.695 196.1 249.197 195.732 249.78C195.363 250.362 195.111 251.012 194.989 251.694C194.867 252.376 194.878 253.076 195.02 253.754C195.163 254.431 195.435 255.074 195.82 255.644C196.206 256.214 196.697 256.701 197.267 257.078C197.837 257.454 198.473 257.712 199.14 257.836C207.898 259.609 217.316 258.258 225.701 253.362C231.489 249.907 236.293 244.965 239.633 239.026C242.974 233.086 244.735 226.357 244.743 219.507C244.743 209.629 241.15 200.638 235.243 193.757C234.758 193.15 234.147 192.66 233.454 192.324C232.761 191.988 232.003 191.814 231.236 191.815H231.319ZM288.818 197.303C288.239 197.303 287.702 197.345 287.165 197.43C286.475 197.468 285.799 197.647 285.178 197.957C284.557 198.266 284.003 198.701 283.549 199.233C283.095 199.766 282.75 200.387 282.535 201.058C282.32 201.729 282.239 202.438 282.297 203.142C282.355 203.846 282.551 204.531 282.873 205.156C283.195 205.781 283.637 206.334 284.172 206.782C284.707 207.229 285.324 207.562 285.987 207.761C286.65 207.96 287.346 208.021 288.033 207.941C290.206 207.737 292.391 208.175 294.327 209.202C296.264 210.23 297.872 211.804 298.959 213.737C300.047 215.671 300.568 217.883 300.462 220.11C300.355 222.338 299.626 224.487 298.36 226.303C297.974 226.874 297.703 227.517 297.561 228.195C297.419 228.873 297.409 229.573 297.532 230.256C297.655 230.938 297.908 231.588 298.277 232.17C298.645 232.752 299.123 233.255 299.681 233.648C300.24 234.042 300.869 234.319 301.533 234.464C302.196 234.609 302.881 234.62 303.549 234.494C304.216 234.369 304.853 234.11 305.423 233.733C305.992 233.356 306.484 232.868 306.869 232.297C309.472 228.563 310.872 224.092 310.876 219.507C310.876 211.613 306.704 204.226 300.012 200.3C296.601 198.285 292.715 197.263 288.776 197.345L288.818 197.303ZM41.7613 197.345C37.9197 197.261 34.0369 198.232 30.5258 200.3C27.2211 202.245 24.4744 205.043 22.5606 208.414C20.6467 211.784 19.633 215.61 19.6208 219.507C19.6156 224.107 21.0164 228.593 23.6275 232.34C24.0154 232.911 24.5095 233.398 25.0816 233.774C25.6538 234.15 26.2928 234.407 26.9621 234.53C27.6314 234.654 28.318 234.641 28.9826 234.493C29.6472 234.346 30.2769 234.066 30.8356 233.669C31.3943 233.273 31.8712 232.768 32.2389 232.183C32.6067 231.599 32.8582 230.946 32.979 230.262C33.0998 229.578 33.0876 228.876 32.9431 228.197C32.7986 227.518 32.5246 226.874 32.1368 226.303C30.8705 224.487 30.1409 222.338 30.0346 220.11C29.9283 217.883 30.4498 215.671 31.5372 213.737C32.6246 211.804 34.2321 210.23 36.1689 209.202C38.1057 208.175 40.2904 207.737 42.4635 207.941C43.1446 208.013 43.833 207.946 44.4886 207.744C45.1442 207.542 45.754 207.209 46.2823 206.763C46.8107 206.318 47.2471 205.77 47.5662 205.151C47.8852 204.532 48.0806 203.854 48.1409 203.157C48.2011 202.46 48.1251 201.757 47.9172 201.09C47.7093 200.424 47.3737 199.806 46.9299 199.273C46.4862 198.74 45.9431 198.302 45.3323 197.986C44.7215 197.67 44.0552 197.48 43.3722 197.43C42.8224 197.385 42.2714 197.357 41.72 197.345H41.7613ZM440.992 204.353C439.216 204.353 437.688 205.239 436.696 206.674C434.1 210.426 432.714 214.912 432.731 219.507C432.739 223.395 433.742 227.213 435.64 230.583C437.539 233.952 440.267 236.755 443.553 238.714C447.45 241.023 451.957 242.027 456.441 241.584C457.119 241.523 457.779 241.326 458.382 241.005C458.986 240.683 459.522 240.244 459.959 239.71C460.396 239.177 460.727 238.561 460.931 237.898C461.135 237.234 461.21 236.536 461.15 235.843C461.09 235.15 460.898 234.476 460.583 233.859C460.268 233.243 459.838 232.695 459.316 232.248C458.795 231.801 458.192 231.464 457.543 231.255C456.894 231.046 456.21 230.97 455.532 231.031C453.366 231.228 451.19 230.788 449.26 229.762C447.331 228.736 445.729 227.168 444.643 225.242C443.557 223.316 443.033 221.112 443.133 218.892C443.233 216.672 443.952 214.527 445.206 212.711C445.762 211.921 446.093 210.989 446.163 210.019C446.234 209.049 446.04 208.078 445.604 207.213C445.168 206.348 444.507 205.623 443.693 205.118C442.879 204.613 441.944 204.348 440.992 204.353ZM220 204.353C219.048 204.348 218.114 204.613 217.3 205.118C216.486 205.623 215.824 206.348 215.388 207.213C214.952 208.078 214.759 209.049 214.829 210.019C214.9 210.989 215.231 211.921 215.787 212.711C217.053 214.527 217.783 216.676 217.889 218.904C217.996 221.131 217.474 223.343 216.387 225.277C215.299 227.21 213.692 228.784 211.755 229.812C209.818 230.839 207.634 231.277 205.46 231.073C204.782 231.012 204.099 231.088 203.45 231.297C202.801 231.506 202.198 231.844 201.676 232.29C201.155 232.737 200.724 233.285 200.41 233.902C200.095 234.518 199.902 235.193 199.843 235.886C199.783 236.578 199.857 237.277 200.062 237.94C200.266 238.604 200.596 239.22 201.034 239.753C201.471 240.286 202.007 240.726 202.61 241.047C203.214 241.369 203.874 241.566 204.552 241.627C208.889 242.049 213.391 241.12 217.439 238.672C220.715 236.714 223.433 233.916 225.324 230.555C227.215 227.193 228.214 223.385 228.221 219.507C228.221 214.737 226.733 210.305 224.214 206.674C223.743 205.963 223.109 205.379 222.368 204.975C221.627 204.57 220.8 204.356 219.959 204.353H220ZM41.3069 214.23C39.9375 214.23 38.6242 214.786 37.6558 215.776C36.6875 216.765 36.1435 218.108 36.1435 219.507C36.1435 220.906 36.6875 222.249 37.6558 223.238C38.6242 224.228 39.9375 224.784 41.3069 224.784C42.6763 224.784 43.9896 224.228 44.9579 223.238C45.9262 222.249 46.4702 220.906 46.4702 219.507C46.4702 218.108 45.9262 216.765 44.9579 215.776C43.9896 214.786 42.6763 214.23 41.3069 214.23ZM454.376 214.23C453.006 214.23 451.693 214.786 450.725 215.776C449.756 216.765 449.212 218.108 449.212 219.507C449.212 220.906 449.756 222.249 450.725 223.238C451.693 224.228 453.006 224.784 454.376 224.784C455.745 224.784 457.058 224.228 458.027 223.238C458.995 222.249 459.539 220.906 459.539 219.507C459.539 218.108 458.995 216.765 458.027 215.776C457.058 214.786 455.745 214.23 454.376 214.23ZM206.906 214.23C205.537 214.13 204.184 214.589 203.146 215.507C202.108 216.426 201.47 217.728 201.371 219.127C201.272 220.526 201.722 221.909 202.62 222.969C203.519 224.03 204.793 224.683 206.163 224.784C206.841 224.833 207.522 224.746 208.167 224.527C208.812 224.308 209.409 223.961 209.923 223.507C210.437 223.052 210.858 222.498 211.162 221.877C211.467 221.256 211.649 220.58 211.698 219.887C211.747 219.194 211.661 218.498 211.447 217.839C211.233 217.179 210.893 216.57 210.448 216.044C210.003 215.519 209.462 215.089 208.854 214.777C208.246 214.466 207.584 214.28 206.906 214.23ZM288.776 214.23C288.098 214.28 287.437 214.466 286.829 214.777C286.221 215.089 285.679 215.519 285.234 216.044C284.789 216.57 284.45 217.179 284.236 217.839C284.021 218.498 283.936 219.194 283.985 219.887C284.034 220.58 284.216 221.256 284.52 221.877C284.825 222.498 285.246 223.052 285.76 223.507C286.274 223.961 286.871 224.308 287.516 224.527C288.161 224.746 288.842 224.833 289.52 224.784C290.889 224.683 292.164 224.03 293.062 222.969C293.961 221.909 294.41 220.526 294.312 219.127C294.213 217.728 293.574 216.426 292.536 215.507C291.498 214.589 290.146 214.13 288.776 214.23ZM82.6551 219.845C65.1711 219.809 48.2861 226.352 35.2205 238.225C22.1549 250.098 13.8229 266.47 11.8138 284.219C11.6498 285.208 11.7647 286.223 12.1451 287.148C12.5256 288.072 13.1557 288.866 13.9619 289.437C14.768 290.009 15.7167 290.333 16.697 290.374C17.6772 290.414 18.6484 290.168 19.4968 289.665C20.1952 289.245 20.7872 288.664 21.225 287.967C21.6627 287.27 21.9339 286.478 22.0166 285.655C23.0863 275.966 26.3687 266.671 31.5993 258.517C36.8299 250.363 43.8623 243.58 52.1293 238.714C61.3983 233.27 71.9022 230.405 82.5931 230.405C93.284 230.405 103.788 233.27 113.057 238.714C121.321 243.589 128.349 250.381 133.572 258.542C138.796 266.704 142.069 276.005 143.128 285.697C143.182 286.417 143.379 287.118 143.708 287.757C144.037 288.395 144.491 288.958 145.041 289.411C145.592 289.863 146.227 290.195 146.908 290.387C147.59 290.578 148.302 290.625 149.001 290.523C149.701 290.422 150.373 290.175 150.975 289.798C151.577 289.421 152.097 288.921 152.503 288.33C152.909 287.739 153.192 287.07 153.334 286.363C153.477 285.655 153.476 284.926 153.331 284.219C151.324 266.492 143.01 250.137 129.971 238.267C116.931 226.397 100.076 219.84 82.6138 219.845H82.6551ZM0 236.181V256.19C1.29845 257.728 2.67736 259.194 4.13069 260.58C4.85047 261.326 5.77121 261.836 6.77562 262.045C7.78004 262.254 8.82267 262.154 9.77071 261.755C10.7188 261.357 11.5293 260.679 12.0991 259.808C12.6689 258.937 12.9722 257.913 12.9704 256.865C12.9704 255.303 12.3095 253.91 11.3181 252.982C6.35 248.329 2.48009 242.584 0 236.181H0ZM82.6138 236.73C70.2026 236.707 58.1539 241.005 48.4529 248.916C38.7518 256.827 31.9772 267.879 29.2453 280.251C28.9166 281.612 29.1302 283.05 29.839 284.249C30.5478 285.448 31.6938 286.311 33.0249 286.647C34.3559 286.982 35.763 286.764 36.9366 286.04C38.1102 285.315 38.9542 284.144 39.2828 282.784C40.6123 276.641 43.1795 270.849 46.8208 265.776C50.4621 260.703 55.0977 256.46 60.432 253.319C67.1865 249.349 74.8422 247.259 82.6344 247.259C90.4266 247.259 98.0824 249.349 104.837 253.319C110.168 256.469 114.798 260.72 118.433 265.8C122.067 270.881 124.625 276.679 125.945 282.826C126.175 283.86 126.704 284.798 127.463 285.52C128.223 286.241 129.177 286.713 130.203 286.872C131.228 287.031 132.276 286.872 133.211 286.414C134.146 285.956 134.925 285.22 135.445 284.304C136.189 283.037 136.313 281.602 135.982 280.294C133.258 267.913 126.487 256.852 116.786 248.932C107.084 241.013 95.0306 236.709 82.6138 236.73ZM82.6138 253.615C74.6286 253.593 66.8387 256.137 60.3454 260.886C53.8521 265.636 48.9838 272.351 46.4289 280.082C45.9688 281.404 46.0411 282.857 46.6298 284.124C47.2185 285.391 48.2755 286.366 49.5683 286.836C50.861 287.307 52.2835 287.233 53.523 286.631C54.7624 286.03 55.7172 284.949 56.1774 283.628C58.3287 277.016 62.7831 271.442 68.6933 267.967C72.9347 265.475 77.7417 264.163 82.6344 264.163C87.5271 264.163 92.3341 265.475 96.5755 267.967C102.47 271.45 106.909 277.023 109.05 283.628C109.364 284.595 109.944 285.448 110.721 286.085C111.499 286.722 112.44 287.115 113.431 287.218C114.422 287.32 115.421 287.128 116.308 286.663C117.194 286.199 117.93 285.482 118.427 284.599C119.253 283.164 119.336 281.518 118.799 280.082C116.244 272.351 111.375 265.636 104.882 260.886C98.3888 256.137 90.5989 253.593 82.6138 253.615ZM0 265.308V278.732C1.16109 279.237 2.46325 279.291 3.6604 278.882C4.85755 278.474 5.86678 277.631 6.49737 276.514C7.12795 275.396 7.33622 274.082 7.08282 272.818C6.82941 271.555 6.13189 270.43 5.12205 269.656C3.33732 268.289 1.62739 266.824 0 265.266L0 265.308ZM82.6138 270.5C78.4644 270.501 74.4025 271.719 70.9101 274.008C67.4176 276.298 64.6412 279.563 62.9104 283.417C62.5779 284.049 62.375 284.743 62.314 285.458C62.253 286.173 62.3352 286.892 62.5556 287.573C62.776 288.254 63.1299 288.882 63.5958 289.419C64.0617 289.955 64.6298 290.389 65.2652 290.694C65.9007 290.998 66.5903 291.167 67.2919 291.19C67.9934 291.214 68.6922 291.09 69.3455 290.828C69.9988 290.566 70.593 290.17 71.0916 289.665C71.5903 289.16 71.983 288.557 72.2457 287.892C73.1543 285.862 74.6144 284.141 76.4525 282.934C78.2906 281.728 80.4292 281.086 82.6138 281.086C84.7983 281.086 86.9369 281.728 88.775 282.934C90.6131 284.141 92.0733 285.862 92.9818 287.892C93.2445 288.557 93.6372 289.16 94.1359 289.665C94.6346 290.17 95.2287 290.566 95.882 290.828C96.5353 291.09 97.2341 291.214 97.9357 291.19C98.6372 291.167 99.3268 290.998 99.9623 290.694C100.598 290.389 101.166 289.955 101.632 289.419C102.098 288.882 102.452 288.254 102.672 287.573C102.892 286.892 102.975 286.173 102.914 285.458C102.853 284.743 102.65 284.049 102.317 283.417C100.595 279.557 97.8202 276.286 94.3259 273.995C90.8315 271.704 86.7653 270.491 82.6138 270.5ZM82.242 287.385C80.938 287.481 79.7183 288.08 78.829 289.059C77.9397 290.038 77.447 291.326 77.4504 292.662H87.7771C87.779 291.936 87.6342 291.217 87.3517 290.551C87.0693 289.885 86.6554 289.285 86.1358 288.79C85.6163 288.294 85.0023 287.914 84.3323 287.672C83.6623 287.431 82.9507 287.333 82.242 287.385ZM413.441 287.385C412.731 287.327 412.016 287.42 411.344 287.659C410.671 287.898 410.054 288.278 409.533 288.775C409.012 289.272 408.599 289.874 408.318 290.543C408.038 291.212 407.897 291.934 407.905 292.662H418.232C418.245 291.323 417.756 290.03 416.865 289.048C415.974 288.067 414.748 287.472 413.441 287.385Z" fill="url(#paint1_linear_1437_3585)" fill-opacity="0.6"/>
<defs>
<linearGradient id="paint0_linear_1437_3585" x1="247.841" y1="0" x2="247.841" y2="292.704" gradientUnits="userSpaceOnUse">
<stop stop-color="#54ADFF"/>
<stop offset="0.786458" stop-color="#C23264"/>
</linearGradient>
<linearGradient id="paint1_linear_1437_3585" x1="247.841" y1="0" x2="247.841" y2="292.662" gradientUnits="userSpaceOnUse">
<stop stop-color="#54ADFF"/>
<stop offset="0.786458" stop-color="#C23264"/>
</linearGradient>
</defs>
</svg>
