<svg width="11" height="12" viewBox="0 0 11 12" fill="none" xmlns="http://www.w3.org/2000/svg">
<path fill-rule="evenodd" clip-rule="evenodd" d="M7.8072 2.36465C7.93012 2.1829 8.0575 2.00938 8.19155 1.84284C8.39253 1.59293 8.62476 1.37237 8.83754 1.13487C8.92773 1.03403 9.15911 0.767179 9.19848 0.735198C9.54314 0.458205 9.83499 0.667384 9.91505 0.734142C9.95475 0.765424 10.3511 1.09853 10.0326 1.59537C9.64362 2.20319 9.18718 2.74703 8.67707 3.21346C8.34969 3.72184 8.07928 4.28665 7.88976 4.85619C7.13632 7.12177 8.32893 8.67363 9.78731 10.1801C10.0129 10.4104 10.023 10.788 9.81373 11.0327C9.60278 11.2791 9.24466 11.3078 9.00348 11.096C8.11765 10.3283 6.0367 9.50199 4.86683 9.69021C4.622 9.72971 4.22119 10.0245 3.80759 10.2919C3.23288 10.6624 2.64206 11.0055 2.30105 11.0521C2.24889 11.0602 1.67267 11.097 1.5471 11.0593C1.24678 10.967 1.15295 10.7389 1.12123 10.5867C1.0895 10.4345 1.10096 10.2124 1.24547 9.97647C1.39646 9.72988 1.827 9.35099 1.90524 9.25505C2.18894 8.90693 2.73044 8.2079 3.12327 7.53071C3.33472 7.16599 3.52009 6.81926 3.52873 6.55922C3.56062 5.59665 2.78491 4.92733 2.11236 4.384C2.03579 4.32091 1.95755 4.25958 1.88114 4.19667C1.5677 4.01719 1.25759 3.80274 0.954454 3.55022C0.496177 3.16941 0.805798 2.70176 0.827059 2.6717C0.874232 2.606 1.12819 2.27902 1.55026 2.48541C1.59561 2.50866 1.89925 2.71277 2.01669 2.79089C2.18013 2.89994 2.33842 3.01756 2.49555 3.13744C4.33082 4.15262 6.31377 3.66643 7.8072 2.36465ZM6.77785 4.4588C6.21343 6.1648 6.48734 7.56444 7.19893 8.81641L7.19876 8.81624C6.2945 8.51845 5.3658 8.35925 4.68927 8.46883C4.4328 8.51007 4.03583 8.71803 3.6121 8.97475C3.87405 8.59674 4.13883 8.17976 4.33433 7.79127C4.55774 7.34826 4.69209 6.92693 4.70305 6.60292C4.72365 5.97798 4.53496 5.41945 4.23282 4.92331C5.10619 4.97888 5.96893 4.81007 6.77785 4.4588Z" fill="#FFCEC4"/>
</svg>
